<svg xmlns="http://www.w3.org/2000/svg" xmlns:xlink="http://www.w3.org/1999/xlink" width="390" height="844" viewBox="0 0 390 844">
  <defs>
    <linearGradient id="linear-gradient" x1="0.5" x2="0.5" y2="1" gradientUnits="objectBoundingBox">
      <stop offset="0" stop-color="#f8f8f8"/>
      <stop offset="1" stop-color="#b7b8c5"/>
    </linearGradient>
    <filter id="Path_24" x="-39.602" y="-37.501" width="459.085" height="153.874" filterUnits="userSpaceOnUse">
      <feOffset dy="3" input="SourceAlpha"/>
      <feGaussianBlur stdDeviation="3" result="blur"/>
      <feFlood flood-opacity="0.161"/>
      <feComposite operator="in" in2="blur"/>
      <feComposite in="SourceGraphic"/>
    </filter>
    <filter id="Path_25" x="-35.602" y="-22.678" width="459.085" height="153.874" filterUnits="userSpaceOnUse">
      <feOffset dy="3" input="SourceAlpha"/>
      <feGaussianBlur stdDeviation="3" result="blur-2"/>
      <feFlood flood-opacity="0.161"/>
      <feComposite operator="in" in2="blur-2"/>
      <feComposite in="SourceGraphic"/>
    </filter>
    <filter id="Path_26" x="-32.602" y="-7.854" width="459.085" height="153.819" filterUnits="userSpaceOnUse">
      <feOffset dy="3" input="SourceAlpha"/>
      <feGaussianBlur stdDeviation="3" result="blur-3"/>
      <feFlood flood-opacity="0.161"/>
      <feComposite operator="in" in2="blur-3"/>
      <feComposite in="SourceGraphic"/>
    </filter>
    <filter id="Path_27" x="-29.602" y="5.681" width="459.085" height="153.874" filterUnits="userSpaceOnUse">
      <feOffset dy="3" input="SourceAlpha"/>
      <feGaussianBlur stdDeviation="3" result="blur-4"/>
      <feFlood flood-opacity="0.161"/>
      <feComposite operator="in" in2="blur-4"/>
      <feComposite in="SourceGraphic"/>
    </filter>
    <clipPath id="clip-path">
      <rect id="Rectangle_6" data-name="Rectangle 6" width="393" height="178" transform="translate(-3)" fill="#fff" stroke="#707070" stroke-width="1"/>
    </clipPath>
    <clipPath id="clip-path-2">
      <rect id="Rectangle_5" data-name="Rectangle 5" width="390" height="844" fill="none"/>
    </clipPath>
    <clipPath id="clip-path-4">
      <rect id="Rectangle_1" data-name="Rectangle 1" width="390.478" height="357.46" fill="none"/>
    </clipPath>
    <linearGradient id="linear-gradient-2" x1="0.5" x2="0.5" y2="1" gradientUnits="objectBoundingBox">
      <stop offset="0" stop-color="#fbd6d6"/>
      <stop offset="1" stop-color="#945f5f"/>
    </linearGradient>
    <filter id="Ellipse_44" x="47" y="446" width="40" height="40" filterUnits="userSpaceOnUse">
      <feOffset dy="3" input="SourceAlpha"/>
      <feGaussianBlur stdDeviation="3" result="blur-5"/>
      <feFlood flood-opacity="0.161"/>
      <feComposite operator="in" in2="blur-5"/>
      <feComposite in="SourceGraphic"/>
    </filter>
    <clipPath id="clip-Login_113">
      <rect width="390" height="844"/>
    </clipPath>
  </defs>
  <g id="Login_113" data-name="Login – 113" clip-path="url(#clip-Login_113)">
    <rect width="390" height="844" fill="#fff"/>
    <g id="Group_67" data-name="Group 67">
      <rect id="Rectangle_22" data-name="Rectangle 22" width="393" height="844" transform="translate(-3)" fill="url(#linear-gradient)"/>
      <g id="Rectangle_23" data-name="Rectangle 23" fill="#fff" stroke="#707070" stroke-width="1">
        <rect width="390" height="844" stroke="none"/>
        <rect x="0.5" y="0.5" width="389" height="843" fill="none"/>
      </g>
    </g>
    <g id="Group_35" data-name="Group 35" transform="translate(-29.736 -106.36)" opacity="0.79">
      <g transform="matrix(1, 0, 0, 1, 29.74, 106.36)" filter="url(#Path_24)">
        <path id="Path_24-2" data-name="Path 24" d="M418.436,8523.537s-77.944-13.119-134.531,13.978,29.371,80.031-30.954,102.859-273.986-19.093-273.986-19.093" transform="translate(-8.7 -8547.36)" fill="none" stroke="#ee81ad" stroke-width="9"/>
      </g>
      <g transform="matrix(1, 0, 0, 1, 29.74, 106.36)" filter="url(#Path_25)">
        <path id="Path_25-2" data-name="Path 25" d="M418.436,8523.537s-77.944-13.119-134.531,13.978,29.371,80.031-30.954,102.859-273.986-19.093-273.986-19.093" transform="translate(-4.7 -8532.54)" fill="none" stroke="#d589b7" stroke-width="9"/>
      </g>
      <g transform="matrix(1, 0, 0, 1, 29.74, 106.36)" filter="url(#Path_26)">
        <path id="Path_26-2" data-name="Path 26" d="M418.436,8523.537s-77.944-13.119-134.531,13.978,29.371,80.031-30.954,102.859c-17.494,6.621-47.884,7.795-82.306,6.122-83.974-4.082-191.68-25.215-191.68-25.215" transform="translate(-1.7 -8517.71)" fill="none" stroke="#9da5d3" stroke-width="9"/>
      </g>
      <g transform="matrix(1, 0, 0, 1, 29.74, 106.36)" filter="url(#Path_27)">
        <path id="Path_27-2" data-name="Path 27" d="M418.436,8523.537s-77.944-13.119-134.531,13.978,29.371,80.031-30.954,102.859-273.986-19.093-273.986-19.093" transform="translate(1.3 -8504.18)" fill="none" stroke="#61b1e7" stroke-width="9"/>
      </g>
    </g>
    <rect id="Rectangle_48" data-name="Rectangle 48" width="390" height="844" fill="#fff"/>
    <g id="Mask_Group_1" data-name="Mask Group 1" clip-path="url(#clip-path)">
      <g id="Group_6" data-name="Group 6">
        <g id="Group_5" data-name="Group 5" clip-path="url(#clip-path-2)">
          <g id="Group_4" data-name="Group 4">
            <g id="Group_3" data-name="Group 3" clip-path="url(#clip-path-2)">
              <rect id="Rectangle_2" data-name="Rectangle 2" width="0.693" height="13.192" transform="translate(343.358 450.387)" fill="#ffe8c0"/>
              <path id="Path_1" data-name="Path 1" d="M359,21v4.158A2.255,2.255,0,0,0,359,21Z" transform="translate(14.36 0.827)" opacity="0.4"/>
              <path id="Path_2" data-name="Path 2" d="M357.84,20.253v5.939a1.864,1.864,0,0,1-1.865,1.864H338.9a1.865,1.865,0,0,1-1.865-1.864V20.253a1.865,1.865,0,0,1,1.865-1.864h17.071A1.864,1.864,0,0,1,357.84,20.253Zm1.04,0a2.906,2.906,0,0,0-2.9-2.9H338.9a2.906,2.906,0,0,0-2.9,2.9v5.939a2.906,2.906,0,0,0,2.9,2.9h17.071a2.906,2.906,0,0,0,2.9-2.9Z" transform="translate(13.44 0.683)" fill-rule="evenodd" opacity="0.35"/>
              <path id="Rectangle_3" data-name="Rectangle 3" d="M.667,0H18.054a.666.666,0,0,1,.666.666V6.921a.667.667,0,0,1-.667.667H.667A.667.667,0,0,1,0,6.921V.667A.667.667,0,0,1,.667,0Z" transform="translate(351.625 20.112)"/>
              <path id="Path_3" data-name="Path 3" d="M325.943,26.537a.327.327,0,0,0-.009-.475,3.559,3.559,0,0,0-4.6,0,.325.325,0,0,0-.01.475l2.078,2.1a.325.325,0,0,0,.461,0Zm-2.308-2.894a5.1,5.1,0,0,1,3.426,1.319.324.324,0,0,0,.451-.005l1.2-1.213a.335.335,0,0,0,0-.477,7.451,7.451,0,0,0-10.143,0,.335.335,0,0,0,0,.477l1.2,1.213a.324.324,0,0,0,.451.005A5.1,5.1,0,0,1,323.635,23.643Zm0-3.946a8.992,8.992,0,0,1,6.191,2.472.321.321,0,0,0,.451,0l1.2-1.213a.335.335,0,0,0,0-.474,11.339,11.339,0,0,0-15.683,0,.335.335,0,0,0,0,.474l1.2,1.213a.321.321,0,0,0,.451,0A8.987,8.987,0,0,1,323.635,19.7Z" transform="translate(12.628 0.683)"/>
              <path id="Path_4" data-name="Path 4" d="M309.267,17.667h1.04a1.039,1.039,0,0,1,1.04,1.039v9.007a1.039,1.039,0,0,1-1.04,1.039h-1.04a1.039,1.039,0,0,1-1.04-1.039V18.706A1.039,1.039,0,0,1,309.267,17.667Zm-4.854,2.425h1.04a1.04,1.04,0,0,1,1.04,1.039v6.582a1.039,1.039,0,0,1-1.04,1.039h-1.04a1.039,1.039,0,0,1-1.04-1.039V21.131A1.04,1.04,0,0,1,304.413,20.092Zm-4.854,2.425h1.04a1.039,1.039,0,0,1,1.04,1.039v4.158a1.039,1.039,0,0,1-1.04,1.039h-1.04a1.039,1.039,0,0,1-1.04-1.039V23.556A1.04,1.04,0,0,1,299.56,22.517ZM294.707,24.6h1.04a1.04,1.04,0,0,1,1.04,1.039v2.079a1.039,1.039,0,0,1-1.04,1.039h-1.04a1.039,1.039,0,0,1-1.04-1.039V25.635A1.039,1.039,0,0,1,294.707,24.6Z" transform="translate(11.747 0.696)"/>
              <path id="Path_5" data-name="Path 5" d="M36.9,21.2a1.91,1.91,0,0,0-1.54.778,2.978,2.978,0,0,0-.629,1.936,2.474,2.474,0,0,0,.661,1.817,2.167,2.167,0,0,0,1.6.671,2.127,2.127,0,0,0,1.7-.767,2.723,2.723,0,0,0,.655-1.829,2.879,2.879,0,0,0-.322-1.318,2.25,2.25,0,0,0-.891-.961A2.434,2.434,0,0,0,36.9,21.2Zm2.832,4.7a4.4,4.4,0,0,1-1.024,1.013,4.272,4.272,0,0,1-1.014.5,3.433,3.433,0,0,1-1.084.167,3.031,3.031,0,0,1-2.441-1.09,3.929,3.929,0,0,1-.919-2.623,4.067,4.067,0,0,1,.478-1.973,3.509,3.509,0,0,1,1.326-1.378,3.6,3.6,0,0,1,1.856-.5,3.851,3.851,0,0,1,2.195.691,4.218,4.218,0,0,1,1.55,2.077,9.694,9.694,0,0,1,.526,3.421,7.982,7.982,0,0,1-1.191,4.617,3.889,3.889,0,0,1-3.4,1.722,3.392,3.392,0,0,1-2.276-.66,1.957,1.957,0,0,1-.762-1.507V30.3h1.417v.075a.881.881,0,0,0,.4.671,1.91,1.91,0,0,0,1.2.316,2.553,2.553,0,0,0,1.647-.564,3.781,3.781,0,0,0,1.117-1.844,8.573,8.573,0,0,0,.413-2.645Z" transform="translate(-4.67 -2.212)"/>
              <path id="Path_6" data-name="Path 6" d="M42.175,24.527H40.157v-2h2.018Zm0,6.5H40.157V29.021h2.018Z" transform="translate(-1.456 -1.048)"/>
              <path id="Path_7" data-name="Path 7" d="M48.5,27.294V22.135l-4.11,5.159Zm1.417,4.784H48.5v-3.6H42.828v-1.18L48.5,20.259h1.417v7.035h1.653v1.18H49.921Z" transform="translate(-0.213 -2.099)"/>
              <path id="Path_8" data-name="Path 8" d="M53.029,32.078V21.728l-2.393.955V21.363l2.393-1.1h1.417V32.078Z" transform="translate(3.42 -2.099)"/>
            </g>
          </g>
        </g>
      </g>
    </g>
    <g id="Group_33" data-name="Group 33" transform="translate(-89.252 -292.499)" style="isolation: isolate">
      <path id="Path_35" data-name="Path 35" d="M2201.547,8660.648h-28.326v39.539h50.311v-39.539" transform="translate(-1914.125 -8290.98)" fill="none" stroke="#00005a" stroke-linecap="round" stroke-linejoin="round" stroke-width="6"/>
      <path id="Path_36" data-name="Path 36" d="M2176.384,8694.462l22.211-12.219,27.352,15.82" transform="translate(-1917.288 -8294.434)" fill="none" stroke="#6865a2" stroke-linecap="round" stroke-linejoin="round" stroke-width="6" style="mix-blend-mode: color-burn;isolation: isolate"/>
      <path id="Path_131" data-name="Path 131" d="M2181.757,8688.775l8.334-3.932,12.7,4.96" transform="translate(-1893.744 -8296.434)" fill="none" stroke="#6865a2" stroke-linecap="round" stroke-linejoin="round" stroke-width="6" style="mix-blend-mode: color-burn;isolation: isolate"/>
      <g id="Ellipse_29" data-name="Ellipse 29" transform="translate(265.071 375.628)" fill="none" stroke="#6865a2" stroke-width="4" style="mix-blend-mode: color-burn;isolation: isolate">
        <circle cx="6.091" cy="6.091" r="6.091" stroke="none"/>
        <circle cx="6.091" cy="6.091" r="4.091" fill="none"/>
      </g>
      <path id="Path_132" data-name="Path 132" d="M267.271,369.668l16.3-25.878,16.766,25.878" fill="none" stroke="#6865a2" stroke-linecap="round" stroke-linejoin="round" stroke-width="6" style="mix-blend-mode: color-burn;isolation: isolate"/>
    </g>
    <text id="謀體" transform="translate(195 150)" fill="#0b112e" font-size="18" font-family="PingFangSC-Semibold, PingFang SC" font-weight="600" letter-spacing="0.03em"><tspan x="-18.27" y="0">謀體</tspan></text>
    <path id="Path_47" data-name="Path 47" d="M14,0H308a14,14,0,0,1,14,14V33a14,14,0,0,1-14,14H14A14,14,0,0,1,0,33V14A14,14,0,0,1,14,0Z" transform="translate(34 169)" fill="#fff" opacity="0.43"/>
    <text id="搜尋" transform="translate(86 198)" fill="#0b112e" font-size="13" font-family="PingFangSC-Regular, PingFang SC" letter-spacing="0.03em" opacity="0.452"><tspan x="0" y="0">搜尋</tspan></text>
    <g id="Group_48" data-name="Group 48" transform="translate(7.297 -152.243)">
      <g id="Ellipse_32" data-name="Ellipse 32" transform="translate(51 335)" fill="none" stroke="#0b112e" stroke-width="1" opacity="0.45">
        <circle cx="7.099" cy="7.099" r="7.099" stroke="none"/>
        <circle cx="7.099" cy="7.099" r="6.599" fill="none"/>
      </g>
      <g id="Ellipse_33" data-name="Ellipse 33" transform="translate(52.775 336.775)" fill="none" stroke="#0b112e" stroke-width="1" opacity="0.45">
        <circle cx="5.324" cy="5.324" r="5.324" stroke="none"/>
        <circle cx="5.324" cy="5.324" r="4.824" fill="none"/>
      </g>
      <g id="Rectangle_49" data-name="Rectangle 49" transform="translate(58.747 346.094) rotate(-38)" fill="none" stroke="#0b112e" stroke-width="1" opacity="0.45">
        <rect width="3.549" height="10.648" rx="1.775" stroke="none"/>
        <rect x="0.5" y="0.5" width="2.549" height="9.648" rx="1.275" fill="none"/>
      </g>
    </g>
    <rect id="Rectangle_50" data-name="Rectangle 50" width="350" height="216" transform="translate(20 261)" fill="url(#linear-gradient-2)"/>
    <text id="_20210728_16:55" data-name="20210728_16:55" transform="translate(314 464)" fill="#fff" font-size="11" font-family="AppleGothic" letter-spacing="0.03em"><tspan x="-52.525" y="0">20210728_16:55</tspan></text>
    <text id="_7公里_25圈_4D" data-name="7公里_25圈_4D" transform="translate(80 463)" fill="#fff" font-size="15" font-family="AppleGothic" letter-spacing="0.03em"><tspan x="-57.563" y="0">7公里_25圈_4D</tspan></text>
    <rect id="Rectangle_123" data-name="Rectangle 123" width="350" height="30" transform="translate(20 447)" opacity="0.53"/>
    <rect id="Rectangle_124" data-name="Rectangle 124" width="277" height="21" rx="10.5" transform="translate(61 452)" fill="#fff" opacity="0.8"/>
    <path id="Polygon_1" data-name="Polygon 1" d="M8.693,1.1a1,1,0,0,1,1.615,0L17.838,11.41A1,1,0,0,1,17.031,13H1.969a1,1,0,0,1-.807-1.59Z" transform="translate(46.5 453) rotate(90)" fill="#fff"/>
    <path id="Polygon_2" data-name="Polygon 2" d="M28.566,3.376a3,3,0,0,1,4.867,0l25.139,34.87A3,3,0,0,1,56.139,43H5.861a3,3,0,0,1-2.434-4.754Z" transform="translate(220 329) rotate(90)" fill="#fff"/>
    <path id="Path_178" data-name="Path 178" d="M2015,4546.5h6v-7.167" transform="translate(2367 5001.333) rotate(180)" fill="none" stroke="#fff" stroke-linecap="round" stroke-linejoin="round" stroke-width="2"/>
    <path id="Path_179" data-name="Path 179" d="M2015,4546.5h6v-7.167" transform="translate(-1658 -4076.833)" fill="none" stroke="#fff" stroke-linecap="round" stroke-linejoin="round" stroke-width="2"/>
    <rect id="Rectangle_122" data-name="Rectangle 122" width="101" height="46" rx="20" transform="translate(76 547)" fill="#fff"/>
    <rect id="Rectangle_130" data-name="Rectangle 130" width="101" height="46" rx="20" transform="translate(213 547)" fill="#fff"/>
    <text id="匯出" transform="translate(195 527)" fill="#0b112e" font-size="22" font-family="PingFangSC-Semibold, PingFang SC" font-weight="600" letter-spacing="0.03em"><tspan x="-22.33" y="0">匯出</tspan></text>
    <text id="影片" transform="translate(127 579)" fill="#0b112e" font-size="22" font-family="PingFangSC-Semibold, PingFang SC" font-weight="600" letter-spacing="0.03em"><tspan x="-22.33" y="0">影片</tspan></text>
    <text id="圖片" transform="translate(264 579)" fill="#0b112e" font-size="22" font-family="PingFangSC-Semibold, PingFang SC" font-weight="600" letter-spacing="0.03em"><tspan x="-22.33" y="0">圖片</tspan></text>
    <g id="Group_78" data-name="Group 78">
      <rect id="Rectangle_125" data-name="Rectangle 125" width="15" height="22" rx="7.5" transform="translate(61 452)" fill="#515151" opacity="0.48"/>
      <g transform="matrix(1, 0, 0, 1, 0, 0)" filter="url(#Ellipse_44)">
        <circle id="Ellipse_44-2" data-name="Ellipse 44" cx="11" cy="11" r="11" transform="translate(56 452)" fill="#fff"/>
      </g>
    </g>
    <g id="Ellipse_35" data-name="Ellipse 35" transform="translate(40 77)" fill="#fff" stroke="#707070" stroke-width="1" opacity="0">
      <circle cx="27" cy="27" r="27" stroke="none"/>
      <circle cx="27" cy="27" r="26.5" fill="none"/>
    </g>
    <path id="Path_44" data-name="Path 44" d="M997.836,10580.244l-15.693,16.884,15.693,13.981" transform="translate(-923.143 -10491.609)" fill="none" stroke="#50558b" stroke-linecap="round" stroke-linejoin="round" stroke-width="4" opacity="0.83"/>
  </g>
</svg>
