<svg xmlns="http://www.w3.org/2000/svg" xmlns:xlink="http://www.w3.org/1999/xlink" width="390" height="844" viewBox="0 0 390 844">
  <defs>
    <linearGradient id="linear-gradient" x1="0.5" x2="0.5" y2="1" gradientUnits="objectBoundingBox">
      <stop offset="0" stop-color="#f8f8f8"/>
      <stop offset="1" stop-color="#b7b8c5"/>
    </linearGradient>
    <filter id="Path_24" x="-39.602" y="-37.501" width="459.085" height="153.874" filterUnits="userSpaceOnUse">
      <feOffset dy="3" input="SourceAlpha"/>
      <feGaussianBlur stdDeviation="3" result="blur"/>
      <feFlood flood-opacity="0.161"/>
      <feComposite operator="in" in2="blur"/>
      <feComposite in="SourceGraphic"/>
    </filter>
    <filter id="Path_25" x="-35.602" y="-22.678" width="459.085" height="153.874" filterUnits="userSpaceOnUse">
      <feOffset dy="3" input="SourceAlpha"/>
      <feGaussianBlur stdDeviation="3" result="blur-2"/>
      <feFlood flood-opacity="0.161"/>
      <feComposite operator="in" in2="blur-2"/>
      <feComposite in="SourceGraphic"/>
    </filter>
    <filter id="Path_26" x="-32.602" y="-7.854" width="459.085" height="153.819" filterUnits="userSpaceOnUse">
      <feOffset dy="3" input="SourceAlpha"/>
      <feGaussianBlur stdDeviation="3" result="blur-3"/>
      <feFlood flood-opacity="0.161"/>
      <feComposite operator="in" in2="blur-3"/>
      <feComposite in="SourceGraphic"/>
    </filter>
    <filter id="Path_27" x="-29.602" y="5.681" width="459.085" height="153.874" filterUnits="userSpaceOnUse">
      <feOffset dy="3" input="SourceAlpha"/>
      <feGaussianBlur stdDeviation="3" result="blur-4"/>
      <feFlood flood-opacity="0.161"/>
      <feComposite operator="in" in2="blur-4"/>
      <feComposite in="SourceGraphic"/>
    </filter>
    <clipPath id="clip-path">
      <rect id="Rectangle_6" data-name="Rectangle 6" width="393" height="178" transform="translate(-3)" fill="#fff" stroke="#707070" stroke-width="1"/>
    </clipPath>
    <clipPath id="clip-path-2">
      <rect id="Rectangle_5" data-name="Rectangle 5" width="390" height="844" fill="none"/>
    </clipPath>
    <clipPath id="clip-path-4">
      <rect id="Rectangle_1" data-name="Rectangle 1" width="390.478" height="357.46" fill="none"/>
    </clipPath>
    <clipPath id="clip-path-5">
      <rect x="-7" y="-4" width="332" height="532" fill="none"/>
    </clipPath>
    <clipPath id="clip-path-6">
      <rect y="3" width="85" height="16" fill="none"/>
    </clipPath>
    <clipPath id="clip-path-7">
      <rect y="3" width="80" height="16" fill="none"/>
    </clipPath>
    <clipPath id="clip-Login_68">
      <rect width="390" height="844"/>
    </clipPath>
  </defs>
  <g id="Login_68" data-name="Login – 68" clip-path="url(#clip-Login_68)">
    <rect width="390" height="844" fill="#fff"/>
    <g id="Group_67" data-name="Group 67">
      <rect id="Rectangle_22" data-name="Rectangle 22" width="393" height="844" transform="translate(-3)" fill="url(#linear-gradient)"/>
      <g id="Rectangle_23" data-name="Rectangle 23" fill="#fff" stroke="#707070" stroke-width="1">
        <rect width="390" height="844" stroke="none"/>
        <rect x="0.5" y="0.5" width="389" height="843" fill="none"/>
      </g>
    </g>
    <g id="Group_35" data-name="Group 35" transform="translate(-29.736 -106.36)" opacity="0.79">
      <g transform="matrix(1, 0, 0, 1, 29.74, 106.36)" filter="url(#Path_24)">
        <path id="Path_24-2" data-name="Path 24" d="M418.436,8523.537s-77.944-13.119-134.531,13.978,29.371,80.031-30.954,102.859-273.986-19.093-273.986-19.093" transform="translate(-8.7 -8547.36)" fill="none" stroke="#ee81ad" stroke-width="9"/>
      </g>
      <g transform="matrix(1, 0, 0, 1, 29.74, 106.36)" filter="url(#Path_25)">
        <path id="Path_25-2" data-name="Path 25" d="M418.436,8523.537s-77.944-13.119-134.531,13.978,29.371,80.031-30.954,102.859-273.986-19.093-273.986-19.093" transform="translate(-4.7 -8532.54)" fill="none" stroke="#d589b7" stroke-width="9"/>
      </g>
      <g transform="matrix(1, 0, 0, 1, 29.74, 106.36)" filter="url(#Path_26)">
        <path id="Path_26-2" data-name="Path 26" d="M418.436,8523.537s-77.944-13.119-134.531,13.978,29.371,80.031-30.954,102.859c-17.494,6.621-47.884,7.795-82.306,6.122-83.974-4.082-191.68-25.215-191.68-25.215" transform="translate(-1.7 -8517.71)" fill="none" stroke="#9da5d3" stroke-width="9"/>
      </g>
      <g transform="matrix(1, 0, 0, 1, 29.74, 106.36)" filter="url(#Path_27)">
        <path id="Path_27-2" data-name="Path 27" d="M418.436,8523.537s-77.944-13.119-134.531,13.978,29.371,80.031-30.954,102.859-273.986-19.093-273.986-19.093" transform="translate(1.3 -8504.18)" fill="none" stroke="#61b1e7" stroke-width="9"/>
      </g>
    </g>
    <rect id="Rectangle_48" data-name="Rectangle 48" width="390" height="844" fill="#fff"/>
    <text id="_7公里_25圈_4D" data-name="7公里_25圈_4D" transform="translate(195 152)" fill="#0b112e" stroke="#0b112e" stroke-linecap="round" stroke-linejoin="round" stroke-width="0.4" font-size="18" font-family="ArialMT, Arial" letter-spacing="0.03em" opacity="0.56"><tspan x="-65.962" y="0">7</tspan><tspan y="0" font-family="PingFangSC-Regular, PingFang SC">公里</tspan><tspan y="0">_25</tspan><tspan y="0" font-family="PingFangSC-Regular, PingFang SC">圈</tspan><tspan y="0">_4D</tspan></text>
    <g id="Group_31" data-name="Group 31" transform="translate(101.296 -182)" style="isolation: isolate">
      <g id="Ellipse_28" data-name="Ellipse 28" transform="translate(79 240)" fill="none" stroke="#00005a" stroke-width="6" style="mix-blend-mode: color-burn;isolation: isolate">
        <circle cx="7" cy="7" r="7" stroke="none"/>
        <circle cx="7" cy="7" r="4" fill="none"/>
      </g>
      <path id="Path_28" data-name="Path 28" d="M12.21,0S13.882,15.441,0,16.05" transform="translate(77.701 254.937) rotate(13)" fill="none" stroke="#00005a" stroke-linecap="round" stroke-width="6" style="mix-blend-mode: color-burn;isolation: isolate"/>
      <path id="Path_29" data-name="Path 29" d="M12.781,0S13.4,15.955,0,16.184" transform="translate(90.272 270.315) rotate(-93)" fill="none" stroke="#6865a2" stroke-linecap="round" stroke-width="6" style="mix-blend-mode: color-burn;isolation: isolate"/>
      <path id="Path_30" data-name="Path 30" d="M1927.031,8679.4s2.337,15.842-13.512,16.976" transform="translate(8905.06 -1024.539) rotate(94)" fill="none" stroke="#00005a" stroke-linecap="round" stroke-width="6" style="mix-blend-mode: color-burn;isolation: isolate"/>
      <path id="Path_31" data-name="Path 31" d="M1927.925,8680.869s.693,12.9-14.406,13.084" transform="translate(4467.729 8032.3) rotate(163)" fill="none" stroke="#6865a2" stroke-linecap="round" stroke-width="6" style="mix-blend-mode: color-burn;isolation: isolate"/>
    </g>
    <g id="Mask_Group_1" data-name="Mask Group 1" clip-path="url(#clip-path)">
      <g id="Group_6" data-name="Group 6">
        <g id="Group_5" data-name="Group 5" clip-path="url(#clip-path-2)">
          <g id="Group_4" data-name="Group 4">
            <g id="Group_3" data-name="Group 3" clip-path="url(#clip-path-2)">
              <rect id="Rectangle_2" data-name="Rectangle 2" width="0.693" height="13.192" transform="translate(343.358 450.387)" fill="#ffe8c0"/>
              <path id="Path_1" data-name="Path 1" d="M359,21v4.158A2.255,2.255,0,0,0,359,21Z" transform="translate(14.36 0.827)" opacity="0.4"/>
              <path id="Path_2" data-name="Path 2" d="M357.84,20.253v5.939a1.864,1.864,0,0,1-1.865,1.864H338.9a1.865,1.865,0,0,1-1.865-1.864V20.253a1.865,1.865,0,0,1,1.865-1.864h17.071A1.864,1.864,0,0,1,357.84,20.253Zm1.04,0a2.906,2.906,0,0,0-2.9-2.9H338.9a2.906,2.906,0,0,0-2.9,2.9v5.939a2.906,2.906,0,0,0,2.9,2.9h17.071a2.906,2.906,0,0,0,2.9-2.9Z" transform="translate(13.44 0.683)" fill-rule="evenodd" opacity="0.35"/>
              <path id="Rectangle_3" data-name="Rectangle 3" d="M.667,0H18.054a.666.666,0,0,1,.666.666V6.921a.667.667,0,0,1-.667.667H.667A.667.667,0,0,1,0,6.921V.667A.667.667,0,0,1,.667,0Z" transform="translate(351.625 20.112)"/>
              <path id="Path_3" data-name="Path 3" d="M325.943,26.537a.327.327,0,0,0-.009-.475,3.559,3.559,0,0,0-4.6,0,.325.325,0,0,0-.01.475l2.078,2.1a.325.325,0,0,0,.461,0Zm-2.308-2.894a5.1,5.1,0,0,1,3.426,1.319.324.324,0,0,0,.451-.005l1.2-1.213a.335.335,0,0,0,0-.477,7.451,7.451,0,0,0-10.143,0,.335.335,0,0,0,0,.477l1.2,1.213a.324.324,0,0,0,.451.005A5.1,5.1,0,0,1,323.635,23.643Zm0-3.946a8.992,8.992,0,0,1,6.191,2.472.321.321,0,0,0,.451,0l1.2-1.213a.335.335,0,0,0,0-.474,11.339,11.339,0,0,0-15.683,0,.335.335,0,0,0,0,.474l1.2,1.213a.321.321,0,0,0,.451,0A8.987,8.987,0,0,1,323.635,19.7Z" transform="translate(12.628 0.683)"/>
              <path id="Path_4" data-name="Path 4" d="M309.267,17.667h1.04a1.039,1.039,0,0,1,1.04,1.039v9.007a1.039,1.039,0,0,1-1.04,1.039h-1.04a1.039,1.039,0,0,1-1.04-1.039V18.706A1.039,1.039,0,0,1,309.267,17.667Zm-4.854,2.425h1.04a1.04,1.04,0,0,1,1.04,1.039v6.582a1.039,1.039,0,0,1-1.04,1.039h-1.04a1.039,1.039,0,0,1-1.04-1.039V21.131A1.04,1.04,0,0,1,304.413,20.092Zm-4.854,2.425h1.04a1.039,1.039,0,0,1,1.04,1.039v4.158a1.039,1.039,0,0,1-1.04,1.039h-1.04a1.039,1.039,0,0,1-1.04-1.039V23.556A1.04,1.04,0,0,1,299.56,22.517ZM294.707,24.6h1.04a1.04,1.04,0,0,1,1.04,1.039v2.079a1.039,1.039,0,0,1-1.04,1.039h-1.04a1.039,1.039,0,0,1-1.04-1.039V25.635A1.039,1.039,0,0,1,294.707,24.6Z" transform="translate(11.747 0.696)"/>
              <path id="Path_5" data-name="Path 5" d="M36.9,21.2a1.91,1.91,0,0,0-1.54.778,2.978,2.978,0,0,0-.629,1.936,2.474,2.474,0,0,0,.661,1.817,2.167,2.167,0,0,0,1.6.671,2.127,2.127,0,0,0,1.7-.767,2.723,2.723,0,0,0,.655-1.829,2.879,2.879,0,0,0-.322-1.318,2.25,2.25,0,0,0-.891-.961A2.434,2.434,0,0,0,36.9,21.2Zm2.832,4.7a4.4,4.4,0,0,1-1.024,1.013,4.272,4.272,0,0,1-1.014.5,3.433,3.433,0,0,1-1.084.167,3.031,3.031,0,0,1-2.441-1.09,3.929,3.929,0,0,1-.919-2.623,4.067,4.067,0,0,1,.478-1.973,3.509,3.509,0,0,1,1.326-1.378,3.6,3.6,0,0,1,1.856-.5,3.851,3.851,0,0,1,2.195.691,4.218,4.218,0,0,1,1.55,2.077,9.694,9.694,0,0,1,.526,3.421,7.982,7.982,0,0,1-1.191,4.617,3.889,3.889,0,0,1-3.4,1.722,3.392,3.392,0,0,1-2.276-.66,1.957,1.957,0,0,1-.762-1.507V30.3h1.417v.075a.881.881,0,0,0,.4.671,1.91,1.91,0,0,0,1.2.316,2.553,2.553,0,0,0,1.647-.564,3.781,3.781,0,0,0,1.117-1.844,8.573,8.573,0,0,0,.413-2.645Z" transform="translate(-4.67 -2.212)"/>
              <path id="Path_6" data-name="Path 6" d="M42.175,24.527H40.157v-2h2.018Zm0,6.5H40.157V29.021h2.018Z" transform="translate(-1.456 -1.048)"/>
              <path id="Path_7" data-name="Path 7" d="M48.5,27.294V22.135l-4.11,5.159Zm1.417,4.784H48.5v-3.6H42.828v-1.18L48.5,20.259h1.417v7.035h1.653v1.18H49.921Z" transform="translate(-0.213 -2.099)"/>
              <path id="Path_8" data-name="Path 8" d="M53.029,32.078V21.728l-2.393.955V21.363l2.393-1.1h1.417V32.078Z" transform="translate(3.42 -2.099)"/>
            </g>
          </g>
        </g>
      </g>
    </g>
    <g id="Scroll_Group_7" data-name="Scroll Group 7" transform="translate(36 201)" clip-path="url(#clip-path-5)" style="isolation: isolate">
      <rect id="Rectangle_65" data-name="Rectangle 65" width="332" height="441" rx="13" transform="translate(-7)" fill="#303141" opacity="0.58"/>
      <rect id="Rectangle_102" data-name="Rectangle 102" width="332" height="441" rx="13" transform="translate(-7 470)" fill="#303141" opacity="0.58"/>
      <g id="Group_68" data-name="Group 68" transform="translate(-38 -144)">
        <text id="_00032_" data-name="00032   " transform="translate(51.43 258.584)" fill="#0b112e" font-size="10" font-family="ArialMT, Arial" letter-spacing="0.02em"><tspan x="0" y="0" xml:space="preserve">00032   </tspan></text>
        <text id="_00032_2" data-name="00032   " transform="translate(50.906 557.584)" fill="#0b112e" font-size="10" font-family="ArialMT, Arial" letter-spacing="0.02em"><tspan x="0" y="0" xml:space="preserve">00032   </tspan></text>
        <text id="_00032" data-name="00032" transform="translate(51.906 299.584)" fill="#0b112e" font-size="10" font-family="ArialMT, Arial" letter-spacing="0.02em"><tspan x="0" y="0">00032</tspan></text>
        <text id="_00032_3" data-name="00032   " transform="translate(50.906 342.584)" fill="#0b112e" font-size="10" font-family="ArialMT, Arial" letter-spacing="0.02em"><tspan x="0" y="0" xml:space="preserve">00032   </tspan></text>
        <text id="_00032_4" data-name="00032   " transform="translate(50.906 385.584)" fill="#0b112e" font-size="10" font-family="ArialMT, Arial" letter-spacing="0.02em"><tspan x="0" y="0" xml:space="preserve">00032   </tspan></text>
        <text id="_00032_5" data-name="00032   " transform="translate(50.906 428.584)" fill="#0b112e" font-size="10" font-family="ArialMT, Arial" letter-spacing="0.02em"><tspan x="0" y="0" xml:space="preserve">00032   </tspan></text>
        <text id="_00032_6" data-name="00032   " transform="translate(50.906 471.584)" fill="#0b112e" font-size="10" font-family="ArialMT, Arial" letter-spacing="0.02em"><tspan x="0" y="0" xml:space="preserve">00032   </tspan></text>
        <text id="_00032_7" data-name="00032   " transform="translate(50.906 514.584)" fill="#0b112e" font-size="10" font-family="ArialMT, Arial" letter-spacing="0.02em"><tspan x="0" y="0" xml:space="preserve">00032   </tspan></text>
        <text id="_18" data-name="18" transform="translate(198.523 258.584)" fill="#0b112e" font-size="14" font-family="ArialMT, Arial" letter-spacing="0.02em"><tspan x="0" y="0">18</tspan></text>
        <text id="_18-2" data-name="18" transform="translate(198 557.584)" fill="#0b112e" font-size="14" font-family="ArialMT, Arial" letter-spacing="0.02em"><tspan x="0" y="0">18</tspan></text>
        <text id="_18-3" data-name="18" transform="translate(199 299.584)" fill="#0b112e" font-size="14" font-family="ArialMT, Arial" letter-spacing="0.02em"><tspan x="0" y="0">18</tspan></text>
        <text id="_18-4" data-name="18" transform="translate(198 342.584)" fill="#0b112e" font-size="14" font-family="ArialMT, Arial" letter-spacing="0.02em"><tspan x="0" y="0">18</tspan></text>
        <text id="_18-5" data-name="18" transform="translate(198 385.584)" fill="#0b112e" font-size="14" font-family="ArialMT, Arial" letter-spacing="0.02em"><tspan x="0" y="0">18</tspan></text>
        <text id="_17" data-name="17" transform="translate(198 428.584)" fill="#0b112e" font-size="14" font-family="ArialMT, Arial" letter-spacing="0.02em"><tspan x="0" y="0">17</tspan></text>
        <text id="_18-6" data-name="18" transform="translate(198 471.584)" fill="#0b112e" font-size="14" font-family="ArialMT, Arial" letter-spacing="0.02em"><tspan x="0" y="0">18</tspan></text>
        <text id="_16" data-name="16" transform="translate(198 514.584)" fill="#0b112e" font-size="14" font-family="ArialMT, Arial" letter-spacing="0.02em"><tspan x="0" y="0">16</tspan></text>
        <text id="_25:42.7_" data-name="25:42.7 " transform="translate(229.57 258.584)" fill="#0b112e" font-size="14" font-family="ArialMT, Arial" letter-spacing="0.02em"><tspan x="0" y="0">25:42.7 </tspan></text>
        <text id="_25:39.4" data-name="25:39.4" transform="translate(229.047 557.584)" fill="#0b112e" font-size="14" font-family="ArialMT, Arial" letter-spacing="0.02em"><tspan x="0" y="0">25:39.4</tspan></text>
        <text id="_25:40.7_" data-name="25:40.7 " transform="translate(230.047 299.584)" fill="#0b112e" font-size="14" font-family="ArialMT, Arial" letter-spacing="0.02em"><tspan x="0" y="0">25:40.7 </tspan></text>
        <text id="_25:39.2_" data-name="25:39.2 " transform="translate(229.047 342.584)" fill="#0b112e" font-size="14" font-family="ArialMT, Arial" letter-spacing="0.02em"><tspan x="0" y="0">25:39.2 </tspan></text>
        <text id="_25:36.1_" data-name="25:36.1 " transform="translate(229.047 385.584)" fill="#0b112e" font-size="14" font-family="ArialMT, Arial" letter-spacing="0.02em"><tspan x="0" y="0">25:36.1 </tspan></text>
        <text id="_25:40.9_" data-name="25:40.9 " transform="translate(229.047 428.584)" fill="#0b112e" font-size="14" font-family="ArialMT, Arial" letter-spacing="0.02em"><tspan x="0" y="0">25:40.9 </tspan></text>
        <text id="_25:41.3_" data-name="25:41.3 " transform="translate(229.047 471.584)" fill="#0b112e" font-size="14" font-family="ArialMT, Arial" letter-spacing="0.02em"><tspan x="0" y="0">25:41.3 </tspan></text>
        <text id="_25:40.7_2" data-name="25:40.7 " transform="translate(229.047 514.584)" fill="#0b112e" font-size="14" font-family="ArialMT, Arial" letter-spacing="0.02em"><tspan x="0" y="0">25:40.7 </tspan></text>
        <text id="_01:17.2" data-name=" 01:17.2" transform="translate(290.617 258.584)" fill="#0b112e" font-size="14" font-family="ArialMT, Arial" letter-spacing="0.02em"><tspan x="0" y="0" xml:space="preserve"> 01:17.2</tspan></text>
        <text id="_01:26.9" data-name=" 01:26.9" transform="translate(290.094 557.584)" fill="#0b112e" font-size="14" font-family="ArialMT, Arial" letter-spacing="0.02em"><tspan x="0" y="0" xml:space="preserve"> 01:26.9</tspan></text>
        <text id="_01:24.9" data-name=" 01:24.9" transform="translate(291.094 299.584)" fill="#0b112e" font-size="14" font-family="ArialMT, Arial" letter-spacing="0.02em"><tspan x="0" y="0" xml:space="preserve"> 01:24.9</tspan></text>
        <text id="_01:18.2" data-name=" 01:18.2" transform="translate(290.094 342.584)" fill="#0b112e" font-size="14" font-family="ArialMT, Arial" letter-spacing="0.02em"><tspan x="0" y="0" xml:space="preserve"> 01:18.2</tspan></text>
        <text id="_01:16.9" data-name=" 01:16.9" transform="translate(290.094 385.584)" fill="#0b112e" font-size="14" font-family="ArialMT, Arial" letter-spacing="0.02em"><tspan x="0" y="0" xml:space="preserve"> 01:16.9</tspan></text>
        <text id="_01:42.3" data-name=" 01:42.3" transform="translate(290.094 428.584)" fill="#0b112e" font-size="14" font-family="ArialMT, Arial" letter-spacing="0.02em"><tspan x="0" y="0" xml:space="preserve"> 01:42.3</tspan></text>
        <text id="_01:21.9" data-name=" 01:21.9" transform="translate(290.094 471.584)" fill="#0b112e" font-size="14" font-family="ArialMT, Arial" letter-spacing="0.02em"><tspan x="0" y="0" xml:space="preserve"> 01:21.9</tspan></text>
        <text id="_01:39.2" data-name=" 01:39.2" transform="translate(290.094 514.584)" fill="#0b112e" font-size="14" font-family="ArialMT, Arial" letter-spacing="0.02em"><tspan x="0" y="0" xml:space="preserve"> 01:39.2</tspan></text>
        <text id="Chan_D.M._" data-name="Chan D.M.  " transform="translate(99.43 258.584)" fill="#0b112e" font-size="14" font-family="ArialMT, Arial" letter-spacing="0.02em"><tspan x="0" y="0" xml:space="preserve">Chan D.M.  </tspan></text>
        <text id="Chan_D.M._2" data-name="Chan D.M.  " transform="translate(98.906 557.584)" fill="#0b112e" font-size="14" font-family="ArialMT, Arial" letter-spacing="0.02em"><tspan x="0" y="0" xml:space="preserve">Chan D.M.  </tspan></text>
        <text id="Chan_S.M._" data-name="Chan S.M.  " transform="translate(99.906 299.584)" fill="#0b112e" font-size="14" font-family="ArialMT, Arial" letter-spacing="0.02em"><tspan x="0" y="0" xml:space="preserve">Chan S.M.  </tspan></text>
        <text id="Lam_S.P._" data-name="Lam S.P.  " transform="translate(98.906 342.584)" fill="#0b112e" font-size="14" font-family="ArialMT, Arial" letter-spacing="0.02em"><tspan x="0" y="0" xml:space="preserve">Lam S.P.  </tspan></text>
        <text id="Cheuk_P.L." data-name="Cheuk P.L." transform="translate(98.906 385.584)" fill="#0b112e" font-size="14" font-family="ArialMT, Arial" letter-spacing="0.02em"><tspan x="0" y="0">Cheuk P.L.</tspan></text>
        <g id="Scroll_Group_9" data-name="Scroll Group 9" transform="translate(98.906 412.584)" clip-path="url(#clip-path-6)" style="isolation: isolate">
          <text id="Moyung_Y.H." data-name="Moyung Y.H." transform="translate(0 16)" fill="#0b112e" font-size="14" font-family="ArialMT, Arial" letter-spacing="0.02em"><tspan x="0" y="0">Moyung Y.H.</tspan></text>
        </g>
        <text id="Kwok_L.H." data-name="Kwok L.H." transform="translate(98.906 471.584)" fill="#0b112e" font-size="14" font-family="ArialMT, Arial" letter-spacing="0.02em"><tspan x="0" y="0">Kwok L.H.</tspan></text>
        <g id="Scroll_Group_8" data-name="Scroll Group 8" transform="translate(98.906 498.584)" clip-path="url(#clip-path-7)" style="isolation: isolate">
          <text id="Cheung_K.H." data-name="Cheung K.H." transform="translate(0 16)" fill="#0b112e" font-size="14" font-family="ArialMT, Arial" letter-spacing="0.02em"><tspan x="0" y="0">Cheung K.H.</tspan></text>
        </g>
        <path id="Path_162" data-name="Path 162" d="M0,0H301.427" transform="translate(46.286 272.584)" fill="none" stroke="#121837" stroke-width="1" opacity="0.22"/>
        <path id="Path_165" data-name="Path 165" d="M0,0H301.427" transform="translate(46.286 315.584)" fill="none" stroke="#121837" stroke-width="1" opacity="0.22"/>
        <path id="Path_166" data-name="Path 166" d="M0,0H301.427" transform="translate(46.286 358.584)" fill="none" stroke="#121837" stroke-width="1" opacity="0.22"/>
        <text id="Bib" transform="translate(56.93 224.584)" fill="#121837" stroke="#121837" stroke-width="0.2" font-size="11" font-family="ArialMT, Arial" letter-spacing="0.02em"><tspan x="0" y="0">Bib</tspan></text>
        <text id="上圈時間" transform="translate(293.094 223.584)" fill="#121837" stroke="#121837" stroke-width="0.2" font-size="11" font-family="PingFangSC-Regular, PingFang SC" letter-spacing="0.02em"><tspan x="0" y="0">上圈時間</tspan></text>
        <text id="總時間" transform="translate(236.047 224.584)" fill="#121837" stroke="#121837" stroke-width="0.2" font-size="11" font-family="PingFangSC-Regular, PingFang SC" letter-spacing="0.02em"><tspan x="0" y="0">總時間</tspan></text>
        <text id="圈數" transform="translate(197.43 224.584)" fill="#121837" stroke="#121837" stroke-width="0.2" font-size="11" font-family="PingFangSC-Regular, PingFang SC" letter-spacing="0.02em"><tspan x="0" y="0">圈數</tspan></text>
        <text id="名稱" transform="translate(124.906 223.584)" fill="#121837" stroke="#121837" stroke-width="0.2" font-size="11" font-family="PingFangSC-Regular, PingFang SC" letter-spacing="0.02em"><tspan x="0" y="0">名稱</tspan></text>
        <path id="Path_167" data-name="Path 167" d="M0,0H301.427" transform="translate(46.287 401.584)" fill="none" stroke="#121837" stroke-width="1" opacity="0.22"/>
        <path id="Path_168" data-name="Path 168" d="M0,0H301.427" transform="translate(46.287 444.584)" fill="none" stroke="#121837" stroke-width="1" opacity="0.22"/>
        <path id="Path_169" data-name="Path 169" d="M0,0H301.427" transform="translate(46.286 487.584)" fill="none" stroke="#121837" stroke-width="1" opacity="0.22"/>
        <path id="Path_170" data-name="Path 170" d="M0,0H301.427" transform="translate(46.286 530.584)" fill="none" stroke="#121837" stroke-width="1" opacity="0.22"/>
      </g>
      <g id="Group_75" data-name="Group 75" transform="translate(-38 326)">
        <text id="_00032_8" data-name="00032   " transform="translate(51.43 258.584)" fill="#0b112e" font-size="10" font-family="ArialMT, Arial" letter-spacing="0.02em"><tspan x="0" y="0" xml:space="preserve">00032   </tspan></text>
        <text id="_00032_9" data-name="00032   " transform="translate(51.906 545.584)" fill="#0b112e" font-size="10" font-family="ArialMT, Arial" letter-spacing="0.02em"><tspan x="0" y="0" xml:space="preserve">00032   </tspan></text>
        <text id="_00032-2" data-name="00032" transform="translate(51.906 299.584)" fill="#0b112e" font-size="10" font-family="ArialMT, Arial" letter-spacing="0.02em"><tspan x="0" y="0">00032</tspan></text>
        <text id="_00032_10" data-name="00032   " transform="translate(51.906 340.584)" fill="#0b112e" font-size="10" font-family="ArialMT, Arial" letter-spacing="0.02em"><tspan x="0" y="0" xml:space="preserve">00032   </tspan></text>
        <text id="_00032_11" data-name="00032   " transform="translate(51.906 381.584)" fill="#0b112e" font-size="10" font-family="ArialMT, Arial" letter-spacing="0.02em"><tspan x="0" y="0" xml:space="preserve">00032   </tspan></text>
        <text id="_00032_12" data-name="00032   " transform="translate(51.43 422.584)" fill="#0b112e" font-size="10" font-family="ArialMT, Arial" letter-spacing="0.02em"><tspan x="0" y="0" xml:space="preserve">00032   </tspan></text>
        <text id="_00032_13" data-name="00032   " transform="translate(51.906 463.584)" fill="#0b112e" font-size="10" font-family="ArialMT, Arial" letter-spacing="0.02em"><tspan x="0" y="0" xml:space="preserve">00032   </tspan></text>
        <text id="_00032_14" data-name="00032   " transform="translate(51.906 504.584)" fill="#0b112e" font-size="10" font-family="ArialMT, Arial" letter-spacing="0.02em"><tspan x="0" y="0" xml:space="preserve">00032   </tspan></text>
        <text id="_18-7" data-name="18" transform="translate(198.523 258.584)" fill="#0b112e" font-size="14" font-family="ArialMT, Arial" letter-spacing="0.02em"><tspan x="0" y="0">18</tspan></text>
        <text id="_18-8" data-name="18" transform="translate(199 545.584)" fill="#0b112e" font-size="14" font-family="ArialMT, Arial" letter-spacing="0.02em"><tspan x="0" y="0">18</tspan></text>
        <text id="_18-9" data-name="18" transform="translate(199 299.584)" fill="#0b112e" font-size="14" font-family="ArialMT, Arial" letter-spacing="0.02em"><tspan x="0" y="0">18</tspan></text>
        <text id="_18-10" data-name="18" transform="translate(199 340.584)" fill="#0b112e" font-size="14" font-family="ArialMT, Arial" letter-spacing="0.02em"><tspan x="0" y="0">18</tspan></text>
        <text id="_18-11" data-name="18" transform="translate(199 381.584)" fill="#0b112e" font-size="14" font-family="ArialMT, Arial" letter-spacing="0.02em"><tspan x="0" y="0">18</tspan></text>
        <text id="_17-2" data-name="17" transform="translate(198.523 422.584)" fill="#0b112e" font-size="14" font-family="ArialMT, Arial" letter-spacing="0.02em"><tspan x="0" y="0">17</tspan></text>
        <text id="_18-12" data-name="18" transform="translate(199 463.584)" fill="#0b112e" font-size="14" font-family="ArialMT, Arial" letter-spacing="0.02em"><tspan x="0" y="0">18</tspan></text>
        <text id="_16-2" data-name="16" transform="translate(199 504.584)" fill="#0b112e" font-size="14" font-family="ArialMT, Arial" letter-spacing="0.02em"><tspan x="0" y="0">16</tspan></text>
        <text id="_25:42.7_2" data-name="25:42.7 " transform="translate(229.57 258.584)" fill="#0b112e" font-size="14" font-family="ArialMT, Arial" letter-spacing="0.02em"><tspan x="0" y="0">25:42.7 </tspan></text>
        <text id="_25:39.4-2" data-name="25:39.4" transform="translate(230.047 545.584)" fill="#0b112e" font-size="14" font-family="ArialMT, Arial" letter-spacing="0.02em"><tspan x="0" y="0">25:39.4</tspan></text>
        <text id="_25:40.7_3" data-name="25:40.7 " transform="translate(230.047 299.584)" fill="#0b112e" font-size="14" font-family="ArialMT, Arial" letter-spacing="0.02em"><tspan x="0" y="0">25:40.7 </tspan></text>
        <text id="_25:39.2_2" data-name="25:39.2 " transform="translate(230.047 340.584)" fill="#0b112e" font-size="14" font-family="ArialMT, Arial" letter-spacing="0.02em"><tspan x="0" y="0">25:39.2 </tspan></text>
        <text id="_25:36.1_2" data-name="25:36.1 " transform="translate(230.047 381.584)" fill="#0b112e" font-size="14" font-family="ArialMT, Arial" letter-spacing="0.02em"><tspan x="0" y="0">25:36.1 </tspan></text>
        <text id="_25:40.9_2" data-name="25:40.9 " transform="translate(229.57 422.584)" fill="#0b112e" font-size="14" font-family="ArialMT, Arial" letter-spacing="0.02em"><tspan x="0" y="0">25:40.9 </tspan></text>
        <text id="_25:41.3_2" data-name="25:41.3 " transform="translate(230.047 463.584)" fill="#0b112e" font-size="14" font-family="ArialMT, Arial" letter-spacing="0.02em"><tspan x="0" y="0">25:41.3 </tspan></text>
        <text id="_25:40.7_4" data-name="25:40.7 " transform="translate(230.047 504.584)" fill="#0b112e" font-size="14" font-family="ArialMT, Arial" letter-spacing="0.02em"><tspan x="0" y="0">25:40.7 </tspan></text>
        <text id="_01:17.2-2" data-name=" 01:17.2" transform="translate(290.617 258.584)" fill="#0b112e" font-size="14" font-family="ArialMT, Arial" letter-spacing="0.02em"><tspan x="0" y="0" xml:space="preserve"> 01:17.2</tspan></text>
        <text id="_01:26.9-2" data-name=" 01:26.9" transform="translate(291.094 545.584)" fill="#0b112e" font-size="14" font-family="ArialMT, Arial" letter-spacing="0.02em"><tspan x="0" y="0" xml:space="preserve"> 01:26.9</tspan></text>
        <text id="_01:24.9-2" data-name=" 01:24.9" transform="translate(291.094 299.584)" fill="#0b112e" font-size="14" font-family="ArialMT, Arial" letter-spacing="0.02em"><tspan x="0" y="0" xml:space="preserve"> 01:24.9</tspan></text>
        <text id="_01:18.2-2" data-name=" 01:18.2" transform="translate(291.094 340.584)" fill="#0b112e" font-size="14" font-family="ArialMT, Arial" letter-spacing="0.02em"><tspan x="0" y="0" xml:space="preserve"> 01:18.2</tspan></text>
        <text id="_01:16.9-2" data-name=" 01:16.9" transform="translate(291.094 381.584)" fill="#0b112e" font-size="14" font-family="ArialMT, Arial" letter-spacing="0.02em"><tspan x="0" y="0" xml:space="preserve"> 01:16.9</tspan></text>
        <text id="_01:42.3-2" data-name=" 01:42.3" transform="translate(290.617 422.584)" fill="#0b112e" font-size="14" font-family="ArialMT, Arial" letter-spacing="0.02em"><tspan x="0" y="0" xml:space="preserve"> 01:42.3</tspan></text>
        <text id="_01:21.9-2" data-name=" 01:21.9" transform="translate(291.094 463.584)" fill="#0b112e" font-size="14" font-family="ArialMT, Arial" letter-spacing="0.02em"><tspan x="0" y="0" xml:space="preserve"> 01:21.9</tspan></text>
        <text id="_01:39.2-2" data-name=" 01:39.2" transform="translate(291.094 504.584)" fill="#0b112e" font-size="14" font-family="ArialMT, Arial" letter-spacing="0.02em"><tspan x="0" y="0" xml:space="preserve"> 01:39.2</tspan></text>
        <text id="Chan_D.M._3" data-name="Chan D.M.  " transform="translate(99.43 258.584)" fill="#0b112e" font-size="14" font-family="ArialMT, Arial" letter-spacing="0.02em"><tspan x="0" y="0" xml:space="preserve">Chan D.M.  </tspan></text>
        <text id="Chan_D.M._4" data-name="Chan D.M.  " transform="translate(99.906 545.584)" fill="#0b112e" font-size="14" font-family="ArialMT, Arial" letter-spacing="0.02em"><tspan x="0" y="0" xml:space="preserve">Chan D.M.  </tspan></text>
        <text id="Chan_S.M._2" data-name="Chan S.M.  " transform="translate(99.906 299.584)" fill="#0b112e" font-size="14" font-family="ArialMT, Arial" letter-spacing="0.02em"><tspan x="0" y="0" xml:space="preserve">Chan S.M.  </tspan></text>
        <text id="Lam_S.P._2" data-name="Lam S.P.  " transform="translate(99.906 340.584)" fill="#0b112e" font-size="14" font-family="ArialMT, Arial" letter-spacing="0.02em"><tspan x="0" y="0" xml:space="preserve">Lam S.P.  </tspan></text>
        <text id="Cheuk_P.L.-2" data-name="Cheuk P.L." transform="translate(99.906 381.584)" fill="#0b112e" font-size="14" font-family="ArialMT, Arial" letter-spacing="0.02em"><tspan x="0" y="0">Cheuk P.L.</tspan></text>
        <g id="Scroll_Group_9-2" data-name="Scroll Group 9" transform="translate(99.43 406.584)" clip-path="url(#clip-path-6)" style="isolation: isolate">
          <text id="Moyung_Y.H.-2" data-name="Moyung Y.H." transform="translate(0 16)" fill="#0b112e" font-size="14" font-family="ArialMT, Arial" letter-spacing="0.02em"><tspan x="0" y="0">Moyung Y.H.</tspan></text>
        </g>
        <text id="Kwok_L.H.-2" data-name="Kwok L.H." transform="translate(99.906 463.584)" fill="#0b112e" font-size="14" font-family="ArialMT, Arial" letter-spacing="0.02em"><tspan x="0" y="0">Kwok L.H.</tspan></text>
        <g id="Scroll_Group_8-2" data-name="Scroll Group 8" transform="translate(99.906 488.584)" clip-path="url(#clip-path-7)" style="isolation: isolate">
          <text id="Cheung_K.H.-2" data-name="Cheung K.H." transform="translate(0 16)" fill="#0b112e" font-size="14" font-family="ArialMT, Arial" letter-spacing="0.02em"><tspan x="0" y="0">Cheung K.H.</tspan></text>
        </g>
        <path id="Path_162-2" data-name="Path 162" d="M0,0H290.188" transform="translate(49.906 272.584)" fill="none" stroke="#121837" stroke-width="1" opacity="0.22"/>
        <path id="Path_161" data-name="Path 161" d="M0,0H290.188" transform="translate(49.906 354.584)" fill="none" stroke="#121837" stroke-width="1" opacity="0.22"/>
        <path id="Path_160" data-name="Path 160" d="M0,0H290.188" transform="translate(49.906 477.584)" fill="none" stroke="#121837" stroke-width="1" opacity="0.22"/>
        <path id="Path_163" data-name="Path 163" d="M0,0H290.188" transform="translate(49.906 518.584)" fill="none" stroke="#121837" stroke-width="1" opacity="0.22"/>
        <path id="Path_159" data-name="Path 159" d="M0,0H290.188" transform="translate(49.906 313.584)" fill="none" stroke="#121837" stroke-width="1" opacity="0.22"/>
        <path id="Path_158" data-name="Path 158" d="M0,0H290.188" transform="translate(49.906 436.584)" fill="none" stroke="#121837" stroke-width="1" opacity="0.22"/>
        <path id="Path_157" data-name="Path 157" d="M0,0H290.188" transform="translate(49.906 395.584)" fill="none" stroke="#121837" stroke-width="1" opacity="0.22"/>
        <text id="Bib-2" data-name="Bib" transform="translate(56.93 224.584)" fill="#121837" stroke="#121837" stroke-width="0.2" font-size="11" font-family="ArialMT, Arial" letter-spacing="0.02em"><tspan x="0" y="0">Bib</tspan></text>
        <text id="上圈時間-2" data-name="上圈時間" transform="translate(293.094 223.584)" fill="#121837" stroke="#121837" stroke-width="0.2" font-size="11" font-family="PingFangSC-Regular, PingFang SC" letter-spacing="0.02em"><tspan x="0" y="0">上圈時間</tspan></text>
        <text id="總時間-2" data-name="總時間" transform="translate(236.047 224.584)" fill="#121837" stroke="#121837" stroke-width="0.2" font-size="11" font-family="PingFangSC-Regular, PingFang SC" letter-spacing="0.02em"><tspan x="0" y="0">總時間</tspan></text>
        <text id="圈數-2" data-name="圈數" transform="translate(197.43 224.584)" fill="#121837" stroke="#121837" stroke-width="0.2" font-size="11" font-family="PingFangSC-Regular, PingFang SC" letter-spacing="0.02em"><tspan x="0" y="0">圈數</tspan></text>
        <text id="名稱-2" data-name="名稱" transform="translate(124.906 223.584)" fill="#121837" stroke="#121837" stroke-width="0.2" font-size="11" font-family="PingFangSC-Regular, PingFang SC" letter-spacing="0.02em"><tspan x="0" y="0">名稱</tspan></text>
      </g>
      <g id="Rectangle_96" data-name="Rectangle 96" transform="translate(0 867)" fill="#fff" stroke="#707070" stroke-width="1" opacity="0">
        <rect width="318" height="43" stroke="none"/>
        <rect x="0.5" y="0.5" width="317" height="42" fill="none"/>
      </g>
      <text id="檢查點_1" data-name="檢查點 1" transform="translate(159 38)" fill="#0b112e" font-size="17" font-family="PingFangSC-Regular, PingFang SC" letter-spacing="0.026em"><tspan x="-33.473" y="0">檢查點</tspan><tspan y="0" xml:space="preserve" font-family="ArialMT, Arial"> 1</tspan></text>
      <text id="檢查點_2" data-name="檢查點 2" transform="translate(159 508)" fill="#0b112e" font-size="17" font-family="PingFangSC-Regular, PingFang SC" letter-spacing="0.026em"><tspan x="-33.473" y="0">檢查點</tspan><tspan y="0" xml:space="preserve" font-family="ArialMT, Arial"> 2</tspan></text>
    </g>
    <rect id="Rectangle_45" data-name="Rectangle 45" width="7" height="130" rx="3.5" transform="translate(364 202)" fill="#50558b" opacity="0.83"/>
    <circle id="Ellipse_41" data-name="Ellipse 41" cx="33.5" cy="33.5" r="33.5" transform="translate(119 740)" fill="#50558b" opacity="0"/>
    <circle id="Ellipse_42" data-name="Ellipse 42" cx="33.5" cy="33.5" r="33.5" transform="translate(212 740)" fill="#50558b" opacity="0"/>
    <circle id="Ellipse_43" data-name="Ellipse 43" cx="33.5" cy="33.5" r="33.5" transform="translate(298 740)" fill="#50558b" opacity="0"/>
    <g id="Group_79" data-name="Group 79" transform="translate(-3.25 -10)">
      <path id="Path_185" data-name="Path 185" d="M4001.333,160.513V120.667h32.661v24.521h-32.661" transform="translate(-3678.995 4.833)" fill="none" stroke="#50558b" stroke-linecap="round" stroke-linejoin="round" stroke-width="5" opacity="0.48"/>
      <line id="Line_57" data-name="Line 57" x2="15.677" transform="translate(314.5 166)" fill="none" stroke="#50558b" stroke-linecap="round" stroke-width="5" opacity="0.48"/>
    </g>
    <circle id="Ellipse_45" data-name="Ellipse 45" cx="4" cy="4" r="4" transform="translate(56 803)" fill="#444984" opacity="0.55"/>
    <text id="滾動_顯示" data-name="滾動
顯示" transform="translate(60 770)" fill="#444984" font-size="16" font-family="PingFangSC-Semibold, PingFang SC" font-weight="600" letter-spacing="0.03em"><tspan x="-16.48" y="0">滾動</tspan><tspan y="0" font-family="Arial-BoldMT, Arial" font-weight="700"></tspan><tspan x="-16.24" y="20">顯示</tspan></text>
    <text id="排名榜" transform="translate(151 781)" fill="#828282" font-size="14" font-family="PingFangSC-Semibold, PingFang SC" font-weight="600" letter-spacing="0.03em" opacity="0.53"><tspan x="-21.42" y="0">排名榜</tspan></text>
    <text id="信息" transform="translate(246 781)" fill="#828282" font-size="14" font-family="PingFangSC-Semibold, PingFang SC" font-weight="600" letter-spacing="0.03em" opacity="0.53"><tspan x="-14.21" y="0">信息</tspan></text>
    <text id="實況" transform="translate(332 781)" fill="#828282" font-size="14" font-family="PingFangSC-Semibold, PingFang SC" font-weight="600" letter-spacing="0.03em" opacity="0.53"><tspan x="-14.21" y="0">實況</tspan></text>
  </g>
</svg>
