<svg xmlns="http://www.w3.org/2000/svg" xmlns:xlink="http://www.w3.org/1999/xlink" width="390" height="844" viewBox="0 0 390 844">
  <defs>
    <linearGradient id="linear-gradient" x1="0.5" x2="0.5" y2="1" gradientUnits="objectBoundingBox">
      <stop offset="0" stop-color="#f8f8f8"/>
      <stop offset="1" stop-color="#b7b8c5"/>
    </linearGradient>
    <filter id="Path_24" x="-39.602" y="-37.501" width="459.085" height="153.874" filterUnits="userSpaceOnUse">
      <feOffset dy="3" input="SourceAlpha"/>
      <feGaussianBlur stdDeviation="3" result="blur"/>
      <feFlood flood-opacity="0.161"/>
      <feComposite operator="in" in2="blur"/>
      <feComposite in="SourceGraphic"/>
    </filter>
    <filter id="Path_25" x="-35.602" y="-22.678" width="459.085" height="153.874" filterUnits="userSpaceOnUse">
      <feOffset dy="3" input="SourceAlpha"/>
      <feGaussianBlur stdDeviation="3" result="blur-2"/>
      <feFlood flood-opacity="0.161"/>
      <feComposite operator="in" in2="blur-2"/>
      <feComposite in="SourceGraphic"/>
    </filter>
    <filter id="Path_26" x="-32.602" y="-7.854" width="459.085" height="153.819" filterUnits="userSpaceOnUse">
      <feOffset dy="3" input="SourceAlpha"/>
      <feGaussianBlur stdDeviation="3" result="blur-3"/>
      <feFlood flood-opacity="0.161"/>
      <feComposite operator="in" in2="blur-3"/>
      <feComposite in="SourceGraphic"/>
    </filter>
    <filter id="Path_27" x="-29.602" y="5.681" width="459.085" height="153.874" filterUnits="userSpaceOnUse">
      <feOffset dy="3" input="SourceAlpha"/>
      <feGaussianBlur stdDeviation="3" result="blur-4"/>
      <feFlood flood-opacity="0.161"/>
      <feComposite operator="in" in2="blur-4"/>
      <feComposite in="SourceGraphic"/>
    </filter>
    <clipPath id="clip-path">
      <rect id="Rectangle_6" data-name="Rectangle 6" width="393" height="178" transform="translate(-3)" fill="#fff" stroke="#707070" stroke-width="1"/>
    </clipPath>
    <clipPath id="clip-path-2">
      <rect id="Rectangle_5" data-name="Rectangle 5" width="390" height="844" fill="none"/>
    </clipPath>
    <clipPath id="clip-path-4">
      <rect id="Rectangle_1" data-name="Rectangle 1" width="390.478" height="357.46" fill="none"/>
    </clipPath>
    <clipPath id="clip-path-5">
      <rect y="3" width="85" height="16" fill="none"/>
    </clipPath>
    <clipPath id="clip-Login_120">
      <rect width="390" height="844"/>
    </clipPath>
  </defs>
  <g id="Login_120" data-name="Login – 120" clip-path="url(#clip-Login_120)">
    <rect width="390" height="844" fill="#fff"/>
    <g id="Group_67" data-name="Group 67">
      <rect id="Rectangle_22" data-name="Rectangle 22" width="393" height="844" transform="translate(-3)" fill="url(#linear-gradient)"/>
      <g id="Rectangle_23" data-name="Rectangle 23" fill="#fff" stroke="#707070" stroke-width="1">
        <rect width="390" height="844" stroke="none"/>
        <rect x="0.5" y="0.5" width="389" height="843" fill="none"/>
      </g>
    </g>
    <g id="Group_35" data-name="Group 35" transform="translate(-29.736 -106.36)" opacity="0.79">
      <g transform="matrix(1, 0, 0, 1, 29.74, 106.36)" filter="url(#Path_24)">
        <path id="Path_24-2" data-name="Path 24" d="M418.436,8523.537s-77.944-13.119-134.531,13.978,29.371,80.031-30.954,102.859-273.986-19.093-273.986-19.093" transform="translate(-8.7 -8547.36)" fill="none" stroke="#ee81ad" stroke-width="9"/>
      </g>
      <g transform="matrix(1, 0, 0, 1, 29.74, 106.36)" filter="url(#Path_25)">
        <path id="Path_25-2" data-name="Path 25" d="M418.436,8523.537s-77.944-13.119-134.531,13.978,29.371,80.031-30.954,102.859-273.986-19.093-273.986-19.093" transform="translate(-4.7 -8532.54)" fill="none" stroke="#d589b7" stroke-width="9"/>
      </g>
      <g transform="matrix(1, 0, 0, 1, 29.74, 106.36)" filter="url(#Path_26)">
        <path id="Path_26-2" data-name="Path 26" d="M418.436,8523.537s-77.944-13.119-134.531,13.978,29.371,80.031-30.954,102.859c-17.494,6.621-47.884,7.795-82.306,6.122-83.974-4.082-191.68-25.215-191.68-25.215" transform="translate(-1.7 -8517.71)" fill="none" stroke="#9da5d3" stroke-width="9"/>
      </g>
      <g transform="matrix(1, 0, 0, 1, 29.74, 106.36)" filter="url(#Path_27)">
        <path id="Path_27-2" data-name="Path 27" d="M418.436,8523.537s-77.944-13.119-134.531,13.978,29.371,80.031-30.954,102.859-273.986-19.093-273.986-19.093" transform="translate(1.3 -8504.18)" fill="none" stroke="#61b1e7" stroke-width="9"/>
      </g>
    </g>
    <rect id="Rectangle_48" data-name="Rectangle 48" width="390" height="844" fill="#fff"/>
    <g id="Mask_Group_1" data-name="Mask Group 1" clip-path="url(#clip-path)">
      <g id="Group_6" data-name="Group 6">
        <g id="Group_5" data-name="Group 5" clip-path="url(#clip-path-2)">
          <g id="Group_4" data-name="Group 4">
            <g id="Group_3" data-name="Group 3" clip-path="url(#clip-path-2)">
              <rect id="Rectangle_2" data-name="Rectangle 2" width="0.693" height="13.192" transform="translate(343.358 450.387)" fill="#ffe8c0"/>
              <path id="Path_1" data-name="Path 1" d="M359,21v4.158A2.255,2.255,0,0,0,359,21Z" transform="translate(14.36 0.827)" opacity="0.4"/>
              <path id="Path_2" data-name="Path 2" d="M357.84,20.253v5.939a1.864,1.864,0,0,1-1.865,1.864H338.9a1.865,1.865,0,0,1-1.865-1.864V20.253a1.865,1.865,0,0,1,1.865-1.864h17.071A1.864,1.864,0,0,1,357.84,20.253Zm1.04,0a2.906,2.906,0,0,0-2.9-2.9H338.9a2.906,2.906,0,0,0-2.9,2.9v5.939a2.906,2.906,0,0,0,2.9,2.9h17.071a2.906,2.906,0,0,0,2.9-2.9Z" transform="translate(13.44 0.683)" fill-rule="evenodd" opacity="0.35"/>
              <path id="Rectangle_3" data-name="Rectangle 3" d="M.667,0H18.054a.666.666,0,0,1,.666.666V6.921a.667.667,0,0,1-.667.667H.667A.667.667,0,0,1,0,6.921V.667A.667.667,0,0,1,.667,0Z" transform="translate(351.625 20.112)"/>
              <path id="Path_3" data-name="Path 3" d="M325.943,26.537a.327.327,0,0,0-.009-.475,3.559,3.559,0,0,0-4.6,0,.325.325,0,0,0-.01.475l2.078,2.1a.325.325,0,0,0,.461,0Zm-2.308-2.894a5.1,5.1,0,0,1,3.426,1.319.324.324,0,0,0,.451-.005l1.2-1.213a.335.335,0,0,0,0-.477,7.451,7.451,0,0,0-10.143,0,.335.335,0,0,0,0,.477l1.2,1.213a.324.324,0,0,0,.451.005A5.1,5.1,0,0,1,323.635,23.643Zm0-3.946a8.992,8.992,0,0,1,6.191,2.472.321.321,0,0,0,.451,0l1.2-1.213a.335.335,0,0,0,0-.474,11.339,11.339,0,0,0-15.683,0,.335.335,0,0,0,0,.474l1.2,1.213a.321.321,0,0,0,.451,0A8.987,8.987,0,0,1,323.635,19.7Z" transform="translate(12.628 0.683)"/>
              <path id="Path_4" data-name="Path 4" d="M309.267,17.667h1.04a1.039,1.039,0,0,1,1.04,1.039v9.007a1.039,1.039,0,0,1-1.04,1.039h-1.04a1.039,1.039,0,0,1-1.04-1.039V18.706A1.039,1.039,0,0,1,309.267,17.667Zm-4.854,2.425h1.04a1.04,1.04,0,0,1,1.04,1.039v6.582a1.039,1.039,0,0,1-1.04,1.039h-1.04a1.039,1.039,0,0,1-1.04-1.039V21.131A1.04,1.04,0,0,1,304.413,20.092Zm-4.854,2.425h1.04a1.039,1.039,0,0,1,1.04,1.039v4.158a1.039,1.039,0,0,1-1.04,1.039h-1.04a1.039,1.039,0,0,1-1.04-1.039V23.556A1.04,1.04,0,0,1,299.56,22.517ZM294.707,24.6h1.04a1.04,1.04,0,0,1,1.04,1.039v2.079a1.039,1.039,0,0,1-1.04,1.039h-1.04a1.039,1.039,0,0,1-1.04-1.039V25.635A1.039,1.039,0,0,1,294.707,24.6Z" transform="translate(11.747 0.696)"/>
              <path id="Path_5" data-name="Path 5" d="M36.9,21.2a1.91,1.91,0,0,0-1.54.778,2.978,2.978,0,0,0-.629,1.936,2.474,2.474,0,0,0,.661,1.817,2.167,2.167,0,0,0,1.6.671,2.127,2.127,0,0,0,1.7-.767,2.723,2.723,0,0,0,.655-1.829,2.879,2.879,0,0,0-.322-1.318,2.25,2.25,0,0,0-.891-.961A2.434,2.434,0,0,0,36.9,21.2Zm2.832,4.7a4.4,4.4,0,0,1-1.024,1.013,4.272,4.272,0,0,1-1.014.5,3.433,3.433,0,0,1-1.084.167,3.031,3.031,0,0,1-2.441-1.09,3.929,3.929,0,0,1-.919-2.623,4.067,4.067,0,0,1,.478-1.973,3.509,3.509,0,0,1,1.326-1.378,3.6,3.6,0,0,1,1.856-.5,3.851,3.851,0,0,1,2.195.691,4.218,4.218,0,0,1,1.55,2.077,9.694,9.694,0,0,1,.526,3.421,7.982,7.982,0,0,1-1.191,4.617,3.889,3.889,0,0,1-3.4,1.722,3.392,3.392,0,0,1-2.276-.66,1.957,1.957,0,0,1-.762-1.507V30.3h1.417v.075a.881.881,0,0,0,.4.671,1.91,1.91,0,0,0,1.2.316,2.553,2.553,0,0,0,1.647-.564,3.781,3.781,0,0,0,1.117-1.844,8.573,8.573,0,0,0,.413-2.645Z" transform="translate(-4.67 -2.212)"/>
              <path id="Path_6" data-name="Path 6" d="M42.175,24.527H40.157v-2h2.018Zm0,6.5H40.157V29.021h2.018Z" transform="translate(-1.456 -1.048)"/>
              <path id="Path_7" data-name="Path 7" d="M48.5,27.294V22.135l-4.11,5.159Zm1.417,4.784H48.5v-3.6H42.828v-1.18L48.5,20.259h1.417v7.035h1.653v1.18H49.921Z" transform="translate(-0.213 -2.099)"/>
              <path id="Path_8" data-name="Path 8" d="M53.029,32.078V21.728l-2.393.955V21.363l2.393-1.1h1.417V32.078Z" transform="translate(3.42 -2.099)"/>
            </g>
          </g>
        </g>
      </g>
    </g>
    <circle id="Ellipse_41" data-name="Ellipse 41" cx="33.5" cy="33.5" r="33.5" transform="translate(116 741)" fill="#50558b" opacity="0"/>
    <circle id="Ellipse_42" data-name="Ellipse 42" cx="33.5" cy="33.5" r="33.5" transform="translate(205 740)" fill="#50558b" opacity="0"/>
    <circle id="Ellipse_43" data-name="Ellipse 43" cx="33.5" cy="33.5" r="33.5" transform="translate(298 740)" fill="#50558b" opacity="0"/>
    <g id="Group_73" data-name="Group 73" transform="translate(0 6)">
      <g id="Group_72" data-name="Group 72" transform="translate(-8 -101)">
        <path id="Path_164" data-name="Path 164" d="M13,0H322c7.18,0,13,8.749,13,19.542V679.458C335,690.251,329.18,699,322,699H13c-7.18,0-13-8.749-13-19.542V19.542C0,8.749,5.82,0,13,0Z" transform="translate(36 179)" fill="#50558b"/>
        <g id="Group_68" data-name="Group 68" transform="translate(63.406 371.584)">
          <text id="_18" data-name="18" transform="translate(133.617 13)" fill="#fff" font-size="14" font-family="ArialMT, Arial" letter-spacing="0.02em"><tspan x="0" y="0">18</tspan></text>
          <text id="_18-2" data-name="18" transform="translate(134.094 300)" fill="#0b112e" font-size="14" font-family="ArialMT, Arial" letter-spacing="0.02em"><tspan x="0" y="0">18</tspan></text>
          <text id="_18-3" data-name="18" transform="translate(134.094 54)" fill="#fff" font-size="14" font-family="ArialMT, Arial" letter-spacing="0.02em"><tspan x="0" y="0">18</tspan></text>
          <text id="_18-4" data-name="18" transform="translate(134.094 95)" fill="#fff" font-size="14" font-family="ArialMT, Arial" letter-spacing="0.02em"><tspan x="0" y="0">18</tspan></text>
          <text id="_18-5" data-name="18" transform="translate(134.094 256)" fill="#fff" font-size="14" font-family="ArialMT, Arial" letter-spacing="0.02em"><tspan x="0" y="0">18</tspan></text>
          <text id="_18-6" data-name="18" transform="translate(134.094 136)" fill="#fff" font-size="14" font-family="ArialMT, Arial" letter-spacing="0.02em"><tspan x="0" y="0">18</tspan></text>
          <text id="_18-7" data-name="18" transform="translate(134.094 297)" fill="#fff" font-size="14" font-family="ArialMT, Arial" letter-spacing="0.02em"><tspan x="0" y="0">18</tspan></text>
          <text id="_17" data-name="17" transform="translate(133.617 177)" fill="#fff" font-size="14" font-family="ArialMT, Arial" letter-spacing="0.02em"><tspan x="0" y="0">17</tspan></text>
          <text id="_17-2" data-name="17" transform="translate(133.617 338)" fill="#fff" font-size="14" font-family="ArialMT, Arial" letter-spacing="0.02em"><tspan x="0" y="0">17</tspan></text>
          <text id="_18-8" data-name="18" transform="translate(134.094 218)" fill="#fff" font-size="14" font-family="ArialMT, Arial" letter-spacing="0.02em"><tspan x="0" y="0">18</tspan></text>
          <text id="_18-9" data-name="18" transform="translate(134.094 379)" fill="#fff" font-size="14" font-family="ArialMT, Arial" letter-spacing="0.02em"><tspan x="0" y="0">18</tspan></text>
          <text id="_25:42.7_" data-name="25:42.7 " transform="translate(164.664 13)" fill="#fff" font-size="14" font-family="ArialMT, Arial" letter-spacing="0.02em"><tspan x="0" y="0">25:42.7 </tspan></text>
          <text id="_25:40.7_" data-name="25:40.7 " transform="translate(165.141 54)" fill="#fff" font-size="14" font-family="ArialMT, Arial" letter-spacing="0.02em"><tspan x="0" y="0">25:40.7 </tspan></text>
          <text id="_25:39.2_" data-name="25:39.2 " transform="translate(165.141 95)" fill="#fff" font-size="14" font-family="ArialMT, Arial" letter-spacing="0.02em"><tspan x="0" y="0">25:39.2 </tspan></text>
          <text id="_25:39.2_2" data-name="25:39.2 " transform="translate(165.141 256)" fill="#fff" font-size="14" font-family="ArialMT, Arial" letter-spacing="0.02em"><tspan x="0" y="0">25:39.2 </tspan></text>
          <text id="_25:36.1_" data-name="25:36.1 " transform="translate(165.141 136)" fill="#fff" font-size="14" font-family="ArialMT, Arial" letter-spacing="0.02em"><tspan x="0" y="0">25:36.1 </tspan></text>
          <text id="_25:36.1_2" data-name="25:36.1 " transform="translate(165.141 297)" fill="#fff" font-size="14" font-family="ArialMT, Arial" letter-spacing="0.02em"><tspan x="0" y="0">25:36.1 </tspan></text>
          <text id="_25:40.9_" data-name="25:40.9 " transform="translate(164.664 177)" fill="#fff" font-size="14" font-family="ArialMT, Arial" letter-spacing="0.02em"><tspan x="0" y="0">25:40.9 </tspan></text>
          <text id="_25:40.9_2" data-name="25:40.9 " transform="translate(164.664 338)" fill="#fff" font-size="14" font-family="ArialMT, Arial" letter-spacing="0.02em"><tspan x="0" y="0">25:40.9 </tspan></text>
          <text id="_25:41.3_" data-name="25:41.3 " transform="translate(165.141 218)" fill="#fff" font-size="14" font-family="ArialMT, Arial" letter-spacing="0.02em"><tspan x="0" y="0">25:41.3 </tspan></text>
          <text id="_25:41.3_2" data-name="25:41.3 " transform="translate(165.141 379)" fill="#fff" font-size="14" font-family="ArialMT, Arial" letter-spacing="0.02em"><tspan x="0" y="0">25:41.3 </tspan></text>
          <text id="_01:17.2" data-name=" 01:17.2" transform="translate(225.711 13)" fill="#fff" font-size="14" font-family="ArialMT, Arial" letter-spacing="0.02em"><tspan x="0" y="0" xml:space="preserve"> 01:17.2</tspan></text>
          <text id="_01:24.9" data-name=" 01:24.9" transform="translate(226.188 54)" fill="#fff" font-size="14" font-family="ArialMT, Arial" letter-spacing="0.02em"><tspan x="0" y="0" xml:space="preserve"> 01:24.9</tspan></text>
          <text id="_01:18.2" data-name=" 01:18.2" transform="translate(226.188 95)" fill="#fff" font-size="14" font-family="ArialMT, Arial" letter-spacing="0.02em"><tspan x="0" y="0" xml:space="preserve"> 01:18.2</tspan></text>
          <text id="_01:18.2-2" data-name=" 01:18.2" transform="translate(226.188 256)" fill="#fff" font-size="14" font-family="ArialMT, Arial" letter-spacing="0.02em"><tspan x="0" y="0" xml:space="preserve"> 01:18.2</tspan></text>
          <text id="_01:16.9" data-name=" 01:16.9" transform="translate(226.188 136)" fill="#fff" font-size="14" font-family="ArialMT, Arial" letter-spacing="0.02em"><tspan x="0" y="0" xml:space="preserve"> 01:16.9</tspan></text>
          <text id="_01:16.9-2" data-name=" 01:16.9" transform="translate(226.188 297)" fill="#fff" font-size="14" font-family="ArialMT, Arial" letter-spacing="0.02em"><tspan x="0" y="0" xml:space="preserve"> 01:16.9</tspan></text>
          <text id="_01:42.3" data-name=" 01:42.3" transform="translate(225.711 177)" fill="#fff" font-size="14" font-family="ArialMT, Arial" letter-spacing="0.02em"><tspan x="0" y="0" xml:space="preserve"> 01:42.3</tspan></text>
          <text id="_01:42.3-2" data-name=" 01:42.3" transform="translate(225.711 338)" fill="#fff" font-size="14" font-family="ArialMT, Arial" letter-spacing="0.02em"><tspan x="0" y="0" xml:space="preserve"> 01:42.3</tspan></text>
          <text id="_01:21.9" data-name=" 01:21.9" transform="translate(226.188 218)" fill="#fff" font-size="14" font-family="ArialMT, Arial" letter-spacing="0.02em"><tspan x="0" y="0" xml:space="preserve"> 01:21.9</tspan></text>
          <text id="_01:21.9-2" data-name=" 01:21.9" transform="translate(226.188 379)" fill="#fff" font-size="14" font-family="ArialMT, Arial" letter-spacing="0.02em"><tspan x="0" y="0" xml:space="preserve"> 01:21.9</tspan></text>
          <text id="Chan_D.M._" data-name="Chan D.M.  " transform="translate(34.523 13)" fill="#fff" font-size="14" font-family="ArialMT, Arial" letter-spacing="0.02em"><tspan x="0" y="0" xml:space="preserve">Chan D.M.  </tspan></text>
          <text id="_1" data-name="1" transform="translate(0 13)" fill="#fff" font-size="14" font-family="ArialMT, Arial" letter-spacing="0.02em"><tspan x="0" y="0">1</tspan></text>
          <text id="_2" data-name="2" transform="translate(0 54)" fill="#fff" font-size="14" font-family="ArialMT, Arial" letter-spacing="0.02em"><tspan x="0" y="0">2</tspan></text>
          <text id="_3" data-name="3" transform="translate(0 95)" fill="#fff" font-size="14" font-family="ArialMT, Arial" letter-spacing="0.02em"><tspan x="0" y="0">3</tspan></text>
          <text id="_7" data-name="7" transform="translate(0 256)" fill="#fff" font-size="14" font-family="ArialMT, Arial" letter-spacing="0.02em"><tspan x="0" y="0">7</tspan></text>
          <text id="_4" data-name="4" transform="translate(0 136)" fill="#fff" font-size="14" font-family="ArialMT, Arial" letter-spacing="0.02em"><tspan x="0" y="0">4</tspan></text>
          <text id="_8" data-name="8" transform="translate(0 297)" fill="#fff" font-size="14" font-family="ArialMT, Arial" letter-spacing="0.02em" opacity="0.8"><tspan x="0" y="0">8</tspan></text>
          <text id="_5" data-name="5" transform="translate(0 177)" fill="#fff" font-size="14" font-family="ArialMT, Arial" letter-spacing="0.02em"><tspan x="0" y="0">5</tspan></text>
          <text id="_9" data-name="9" transform="translate(0 338)" fill="#fff" font-size="14" font-family="ArialMT, Arial" letter-spacing="0.02em"><tspan x="0" y="0">9</tspan></text>
          <text id="_6" data-name="6" transform="translate(0 218)" fill="#fff" font-size="14" font-family="ArialMT, Arial" letter-spacing="0.02em"><tspan x="0" y="0">6</tspan></text>
          <text id="_10" data-name="10" transform="translate(-4 379)" fill="#fff" font-size="14" font-family="ArialMT, Arial" letter-spacing="0.02em"><tspan x="0" y="0">10</tspan></text>
          <text id="Chan_S.M._" data-name="Chan S.M.  " transform="translate(35 54)" fill="#fff" font-size="14" font-family="ArialMT, Arial" letter-spacing="0.02em"><tspan x="0" y="0" xml:space="preserve">Chan S.M.  </tspan></text>
          <text id="Lam_S.P._" data-name="Lam S.P.  " transform="translate(35 95)" fill="#fff" font-size="14" font-family="ArialMT, Arial" letter-spacing="0.02em"><tspan x="0" y="0" xml:space="preserve">Lam S.P.  </tspan></text>
          <text id="Lam_S.P._2" data-name="Lam S.P.  " transform="translate(35 256)" fill="#fff" font-size="14" font-family="ArialMT, Arial" letter-spacing="0.02em"><tspan x="0" y="0" xml:space="preserve">Lam S.P.  </tspan></text>
          <text id="Cheuk_P.L." data-name="Cheuk P.L." transform="translate(35 136)" fill="#fff" font-size="14" font-family="ArialMT, Arial" letter-spacing="0.02em"><tspan x="0" y="0">Cheuk P.L.</tspan></text>
          <text id="Cheuk_P.L.-2" data-name="Cheuk P.L." transform="translate(35 297)" fill="#fff" font-size="14" font-family="ArialMT, Arial" letter-spacing="0.02em"><tspan x="0" y="0">Cheuk P.L.</tspan></text>
          <g id="Scroll_Group_9" data-name="Scroll Group 9" transform="translate(34.523 161)" clip-path="url(#clip-path-5)" style="isolation: isolate">
            <text id="Moyung_Y.H." data-name="Moyung Y.H." transform="translate(0 16)" fill="#fff" font-size="14" font-family="ArialMT, Arial" letter-spacing="0.02em"><tspan x="0" y="0">Moyung Y.H.</tspan></text>
          </g>
          <g id="Scroll_Group_11" data-name="Scroll Group 11" transform="translate(34.523 322)" clip-path="url(#clip-path-5)" style="isolation: isolate">
            <text id="Moyung_Y.H.-2" data-name="Moyung Y.H." transform="translate(0 16)" fill="#fff" font-size="14" font-family="ArialMT, Arial" letter-spacing="0.02em"><tspan x="0" y="0">Moyung Y.H.</tspan></text>
          </g>
          <text id="Kwok_L.H." data-name="Kwok L.H." transform="translate(35 218)" fill="#fff" font-size="14" font-family="ArialMT, Arial" letter-spacing="0.02em"><tspan x="0" y="0">Kwok L.H.</tspan></text>
          <text id="Kwok_L.H.-2" data-name="Kwok L.H." transform="translate(35 379)" fill="#fff" font-size="14" font-family="ArialMT, Arial" letter-spacing="0.02em"><tspan x="0" y="0">Kwok L.H.</tspan></text>
          <path id="Path_162" data-name="Path 162" d="M0,0H251.927" transform="translate(23.26 27)" fill="none" stroke="#fff" stroke-width="1" opacity="0.22"/>
          <path id="Path_171" data-name="Path 171" d="M0,0H251.927" transform="translate(23.26 71)" fill="none" stroke="#fff" stroke-width="1" opacity="0.22"/>
          <path id="Path_186" data-name="Path 186" d="M0,0H251.927" transform="translate(23.26 232)" fill="none" stroke="#fff" stroke-width="1" opacity="0.22"/>
          <path id="Path_172" data-name="Path 172" d="M0,0H251.927" transform="translate(23.26 112)" fill="none" stroke="#fff" stroke-width="1" opacity="0.22"/>
          <path id="Path_187" data-name="Path 187" d="M0,0H251.927" transform="translate(23.26 273)" fill="none" stroke="#fff" stroke-width="1" opacity="0.22"/>
          <path id="Path_173" data-name="Path 173" d="M0,0H251.927" transform="translate(23.26 153)" fill="none" stroke="#fff" stroke-width="1" opacity="0.22"/>
          <path id="Path_188" data-name="Path 188" d="M0,0H251.927" transform="translate(23.26 314)" fill="none" stroke="#fff" stroke-width="1" opacity="0.22"/>
          <path id="Path_174" data-name="Path 174" d="M0,0H251.927" transform="translate(23.26 194)" fill="none" stroke="#fff" stroke-width="1" opacity="0.22"/>
          <path id="Path_189" data-name="Path 189" d="M0,0H251.927" transform="translate(23.26 355)" fill="none" stroke="#fff" stroke-width="1" opacity="0.22"/>
        </g>
      </g>
    </g>
    <text id="_7km_25laps_4C_活動結束" data-name="7km_25laps_4C
活動結束" transform="translate(195 161)" fill="#fff" stroke="#0b112e" stroke-linecap="round" stroke-linejoin="round" stroke-width="0.4" font-size="24" font-family="Arial-BoldMT, Arial" letter-spacing="0.03em" font-weight="700"><tspan x="-94.384" y="0">7km_25laps_4C</tspan><tspan font-family="PingFangSC-Regular, PingFang SC" font-weight="400"><tspan x="-49.08" y="31">活動結束</tspan></tspan></text>
    <g id="Rectangle_134" data-name="Rectangle 134" transform="translate(145 703)" fill="#fff" stroke="#707070" stroke-width="1">
      <rect width="100" height="38" rx="19" stroke="none"/>
      <rect x="0.5" y="0.5" width="99" height="37" rx="18.5" fill="none"/>
    </g>
    <text id="關閉" transform="translate(195 728)" fill="#0b112e" font-size="18" font-family="PingFangSC-Semibold, PingFang SC" font-weight="600" letter-spacing="0.05em"><tspan x="-18.45" y="0">關閉</tspan></text>
    <text id="上圈時間" transform="translate(285.188 256.584)" fill="#50558b" stroke="#fff" stroke-width="0.2" font-size="11" font-family="PingFangSC-Regular, PingFang SC" letter-spacing="0.02em"><tspan x="0" y="0">上圈時間</tspan></text>
    <text id="總時間" transform="translate(228.141 257.584)" fill="#50558b" stroke="#fff" stroke-width="0.2" font-size="11" font-family="PingFangSC-Regular, PingFang SC" letter-spacing="0.02em"><tspan x="0" y="0">總時間</tspan></text>
    <text id="圈數" transform="translate(188.523 257.584)" fill="#50558b" stroke="#fff" stroke-width="0.2" font-size="11" font-family="PingFangSC-Regular, PingFang SC" letter-spacing="0.02em"><tspan x="0" y="0">圈數</tspan></text>
    <text id="名稱" transform="translate(116 256.584)" fill="#50558b" stroke="#fff" stroke-width="0.2" font-size="11" font-family="PingFangSC-Regular, PingFang SC" letter-spacing="0.02em"><tspan x="0" y="0">名稱</tspan></text>
  </g>
</svg>
