<svg xmlns="http://www.w3.org/2000/svg" xmlns:xlink="http://www.w3.org/1999/xlink" width="390" height="844" viewBox="0 0 390 844">
  <defs>
    <linearGradient id="linear-gradient" x1="0.5" x2="0.5" y2="1" gradientUnits="objectBoundingBox">
      <stop offset="0" stop-color="#f8f8f8"/>
      <stop offset="1" stop-color="#b7b8c5"/>
    </linearGradient>
    <clipPath id="clip-path">
      <rect x="2" y="-8" width="318" height="420" fill="none"/>
    </clipPath>
    <filter id="Path_24" x="-39.602" y="-37.501" width="459.085" height="153.874" filterUnits="userSpaceOnUse">
      <feOffset dy="3" input="SourceAlpha"/>
      <feGaussianBlur stdDeviation="3" result="blur"/>
      <feFlood flood-opacity="0.161"/>
      <feComposite operator="in" in2="blur"/>
      <feComposite in="SourceGraphic"/>
    </filter>
    <filter id="Path_25" x="-35.602" y="-22.678" width="459.085" height="153.874" filterUnits="userSpaceOnUse">
      <feOffset dy="3" input="SourceAlpha"/>
      <feGaussianBlur stdDeviation="3" result="blur-2"/>
      <feFlood flood-opacity="0.161"/>
      <feComposite operator="in" in2="blur-2"/>
      <feComposite in="SourceGraphic"/>
    </filter>
    <filter id="Path_26" x="-32.602" y="-7.854" width="459.085" height="153.819" filterUnits="userSpaceOnUse">
      <feOffset dy="3" input="SourceAlpha"/>
      <feGaussianBlur stdDeviation="3" result="blur-3"/>
      <feFlood flood-opacity="0.161"/>
      <feComposite operator="in" in2="blur-3"/>
      <feComposite in="SourceGraphic"/>
    </filter>
    <filter id="Path_27" x="-29.602" y="5.681" width="459.085" height="153.874" filterUnits="userSpaceOnUse">
      <feOffset dy="3" input="SourceAlpha"/>
      <feGaussianBlur stdDeviation="3" result="blur-4"/>
      <feFlood flood-opacity="0.161"/>
      <feComposite operator="in" in2="blur-4"/>
      <feComposite in="SourceGraphic"/>
    </filter>
    <clipPath id="clip-path-2">
      <rect id="Rectangle_6" data-name="Rectangle 6" width="393" height="178" transform="translate(-3)" fill="#fff" stroke="#707070" stroke-width="1"/>
    </clipPath>
    <clipPath id="clip-path-3">
      <rect id="Rectangle_5" data-name="Rectangle 5" width="390" height="844" fill="none"/>
    </clipPath>
    <clipPath id="clip-path-5">
      <rect id="Rectangle_1" data-name="Rectangle 1" width="390.478" height="357.46" fill="none"/>
    </clipPath>
    <clipPath id="clip-Login_104">
      <rect width="390" height="844"/>
    </clipPath>
  </defs>
  <g id="Login_104" data-name="Login – 104" clip-path="url(#clip-Login_104)">
    <rect width="390" height="844" fill="#fff"/>
    <g id="Group_67" data-name="Group 67">
      <rect id="Rectangle_22" data-name="Rectangle 22" width="393" height="844" transform="translate(-3)" fill="url(#linear-gradient)"/>
      <g id="Rectangle_23" data-name="Rectangle 23" fill="#fff" stroke="#707070" stroke-width="1">
        <rect width="390" height="844" stroke="none"/>
        <rect x="0.5" y="0.5" width="389" height="843" fill="none"/>
      </g>
    </g>
    <g id="Group_32" data-name="Group 32" transform="translate(164 4.5)" opacity="0" style="mix-blend-mode: screen;isolation: isolate">
      <path id="Path_32" data-name="Path 32" d="M2033.5,8661.908v38.724" transform="translate(-1827.691 -8427.686)" fill="none" stroke="#fff" stroke-linecap="round" stroke-width="8.5" style="mix-blend-mode: screen;isolation: isolate"/>
      <path id="Path_33" data-name="Path 33" d="M2033.5,8661.908v31.2" transform="translate(-1799.494 -8420.162)" fill="none" stroke="#fff" stroke-linecap="round" stroke-width="8.5" style="mix-blend-mode: screen;isolation: isolate"/>
      <path id="Path_34" data-name="Path 34" d="M2033.5,8661.908v35.785" transform="translate(-1785.396 -8424.38)" fill="none" stroke="#fff" stroke-linecap="round" stroke-width="8.5" style="mix-blend-mode: screen;isolation: isolate"/>
      <line id="Line_26" data-name="Line 26" y1="49.814" transform="translate(219.907 223.5)" fill="none" stroke="#fff" stroke-linecap="round" stroke-width="8.5" style="mix-blend-mode: screen;isolation: isolate"/>
      <line id="Line_27" data-name="Line 27" x2="63" transform="translate(195 276.5)" fill="none" stroke="#959595" stroke-linecap="round" stroke-width="5" style="mix-blend-mode: screen;isolation: isolate"/>
    </g>
    <path id="Path_44" data-name="Path 44" d="M997.836,10580.244l-15.693,16.884,15.693,13.981" transform="translate(-923.143 -10360.609)" fill="none" stroke="#fff" stroke-width="2"/>
    <g id="Scroll_Group_1" data-name="Scroll Group 1" transform="translate(34 376)" clip-path="url(#clip-path)" style="isolation: isolate">
      <rect id="Rectangle_65" data-name="Rectangle 65" width="318" height="60" rx="13" transform="translate(2 -8)" fill="#303141" opacity="0.58"/>
      <rect id="Rectangle_70" data-name="Rectangle 70" width="318" height="60" rx="13" transform="translate(2 202)" fill="#303141" opacity="0.58"/>
      <rect id="Rectangle_66" data-name="Rectangle 66" width="318" height="60" rx="13" transform="translate(2 62)" fill="#303141" opacity="0.58"/>
      <rect id="Rectangle_69" data-name="Rectangle 69" width="318" height="60" rx="13" transform="translate(2 272)" fill="#303141" opacity="0.58"/>
      <rect id="Rectangle_67" data-name="Rectangle 67" width="318" height="60" rx="13" transform="translate(2 132)" fill="#303141" opacity="0.58"/>
      <rect id="Rectangle_68" data-name="Rectangle 68" width="318" height="60" rx="13" transform="translate(2 342)" fill="#303141" opacity="0.58"/>
      <text id="_1年級" data-name="1年級" transform="translate(137 27)" fill="#0b112e" font-size="18" font-family="Arial-BoldMT, Arial" font-weight="700" letter-spacing="0.03em"><tspan x="0" y="0">1</tspan><tspan y="0" font-family="PingFangSC-Semibold, PingFang SC" font-weight="600">年級</tspan></text>
      <text id="_5年級" data-name="5年級" transform="translate(137 307)" fill="#0b112e" font-size="18" font-family="Arial-BoldMT, Arial" font-weight="700" letter-spacing="0.03em"><tspan x="0" y="0">5</tspan><tspan y="0" font-family="PingFangSC-Semibold, PingFang SC" font-weight="600">年級</tspan></text>
      <text id="_2年級" data-name="2年級" transform="translate(137 97)" fill="#0b112e" font-size="18" font-family="Arial-BoldMT, Arial" font-weight="700" letter-spacing="0.03em"><tspan x="0" y="0">2</tspan><tspan y="0" font-family="PingFangSC-Semibold, PingFang SC" font-weight="600">年級</tspan></text>
      <text id="_6年級" data-name="6年級" transform="translate(137 377)" fill="#0b112e" font-size="18" font-family="Arial-BoldMT, Arial" font-weight="700" letter-spacing="0.03em"><tspan x="0" y="0">6</tspan><tspan y="0" font-family="PingFangSC-Semibold, PingFang SC" font-weight="600">年級</tspan></text>
      <text id="_3年級" data-name="3年級" transform="translate(137 167)" fill="#0b112e" font-size="18" font-family="Arial-BoldMT, Arial" font-weight="700" letter-spacing="0.03em"><tspan x="0" y="0">3</tspan><tspan y="0" font-family="PingFangSC-Semibold, PingFang SC" font-weight="600">年級</tspan></text>
      <text id="_4年級" data-name="4年級" transform="translate(137 234)" fill="#0b112e" font-size="18" font-family="Arial-BoldMT, Arial" font-weight="700" letter-spacing="0.03em"><tspan x="0" y="0">4</tspan><tspan y="0" font-family="PingFangSC-Semibold, PingFang SC" font-weight="600">年級</tspan></text>
    </g>
    <g id="Ellipse_35" data-name="Ellipse 35" transform="translate(40 208)" fill="#fff" stroke="#707070" stroke-width="1" opacity="0">
      <circle cx="27" cy="27" r="27" stroke="none"/>
      <circle cx="27" cy="27" r="26.5" fill="none"/>
    </g>
    <path id="Path_44-2" data-name="Path 44" d="M997.836,10580.244l-15.693,16.884,15.693,13.981" transform="translate(-923.143 -10360.609)" fill="none" stroke="#50558b" stroke-linecap="round" stroke-linejoin="round" stroke-width="4" opacity="0.83"/>
    <text id="選擇級別" transform="translate(167 341)" fill="#0b112e" font-size="14" font-family="PingFangSC-Regular, PingFang SC" letter-spacing="0.03em"><tspan x="0" y="0">選擇級別</tspan></text>
    <g id="Group_35" data-name="Group 35" transform="translate(-29.736 -106.36)" opacity="0.79">
      <g transform="matrix(1, 0, 0, 1, 29.74, 106.36)" filter="url(#Path_24)">
        <path id="Path_24-2" data-name="Path 24" d="M418.436,8523.537s-77.944-13.119-134.531,13.978,29.371,80.031-30.954,102.859-273.986-19.093-273.986-19.093" transform="translate(-8.7 -8547.36)" fill="none" stroke="#ee81ad" stroke-width="9"/>
      </g>
      <g transform="matrix(1, 0, 0, 1, 29.74, 106.36)" filter="url(#Path_25)">
        <path id="Path_25-2" data-name="Path 25" d="M418.436,8523.537s-77.944-13.119-134.531,13.978,29.371,80.031-30.954,102.859-273.986-19.093-273.986-19.093" transform="translate(-4.7 -8532.54)" fill="none" stroke="#d589b7" stroke-width="9"/>
      </g>
      <g transform="matrix(1, 0, 0, 1, 29.74, 106.36)" filter="url(#Path_26)">
        <path id="Path_26-2" data-name="Path 26" d="M418.436,8523.537s-77.944-13.119-134.531,13.978,29.371,80.031-30.954,102.859c-17.494,6.621-47.884,7.795-82.306,6.122-83.974-4.082-191.68-25.215-191.68-25.215" transform="translate(-1.7 -8517.71)" fill="none" stroke="#9da5d3" stroke-width="9"/>
      </g>
      <g transform="matrix(1, 0, 0, 1, 29.74, 106.36)" filter="url(#Path_27)">
        <path id="Path_27-2" data-name="Path 27" d="M418.436,8523.537s-77.944-13.119-134.531,13.978,29.371,80.031-30.954,102.859-273.986-19.093-273.986-19.093" transform="translate(1.3 -8504.18)" fill="none" stroke="#61b1e7" stroke-width="9"/>
      </g>
    </g>
    <g id="Mask_Group_1" data-name="Mask Group 1" clip-path="url(#clip-path-2)">
      <g id="Group_6" data-name="Group 6">
        <g id="Group_5" data-name="Group 5" clip-path="url(#clip-path-3)">
          <g id="Group_4" data-name="Group 4">
            <g id="Group_3" data-name="Group 3" clip-path="url(#clip-path-3)">
              <rect id="Rectangle_2" data-name="Rectangle 2" width="0.693" height="13.192" transform="translate(343.358 450.387)" fill="#ffe8c0"/>
              <path id="Path_1" data-name="Path 1" d="M359,21v4.158A2.255,2.255,0,0,0,359,21Z" transform="translate(14.36 0.827)" opacity="0.4"/>
              <path id="Path_2" data-name="Path 2" d="M357.84,20.253v5.939a1.864,1.864,0,0,1-1.865,1.864H338.9a1.865,1.865,0,0,1-1.865-1.864V20.253a1.865,1.865,0,0,1,1.865-1.864h17.071A1.864,1.864,0,0,1,357.84,20.253Zm1.04,0a2.906,2.906,0,0,0-2.9-2.9H338.9a2.906,2.906,0,0,0-2.9,2.9v5.939a2.906,2.906,0,0,0,2.9,2.9h17.071a2.906,2.906,0,0,0,2.9-2.9Z" transform="translate(13.44 0.683)" fill-rule="evenodd" opacity="0.35"/>
              <path id="Rectangle_3" data-name="Rectangle 3" d="M.667,0H18.054a.666.666,0,0,1,.666.666V6.921a.667.667,0,0,1-.667.667H.667A.667.667,0,0,1,0,6.921V.667A.667.667,0,0,1,.667,0Z" transform="translate(351.625 20.112)"/>
              <path id="Path_3" data-name="Path 3" d="M325.943,26.537a.327.327,0,0,0-.009-.475,3.559,3.559,0,0,0-4.6,0,.325.325,0,0,0-.01.475l2.078,2.1a.325.325,0,0,0,.461,0Zm-2.308-2.894a5.1,5.1,0,0,1,3.426,1.319.324.324,0,0,0,.451-.005l1.2-1.213a.335.335,0,0,0,0-.477,7.451,7.451,0,0,0-10.143,0,.335.335,0,0,0,0,.477l1.2,1.213a.324.324,0,0,0,.451.005A5.1,5.1,0,0,1,323.635,23.643Zm0-3.946a8.992,8.992,0,0,1,6.191,2.472.321.321,0,0,0,.451,0l1.2-1.213a.335.335,0,0,0,0-.474,11.339,11.339,0,0,0-15.683,0,.335.335,0,0,0,0,.474l1.2,1.213a.321.321,0,0,0,.451,0A8.987,8.987,0,0,1,323.635,19.7Z" transform="translate(12.628 0.683)"/>
              <path id="Path_4" data-name="Path 4" d="M309.267,17.667h1.04a1.039,1.039,0,0,1,1.04,1.039v9.007a1.039,1.039,0,0,1-1.04,1.039h-1.04a1.039,1.039,0,0,1-1.04-1.039V18.706A1.039,1.039,0,0,1,309.267,17.667Zm-4.854,2.425h1.04a1.04,1.04,0,0,1,1.04,1.039v6.582a1.039,1.039,0,0,1-1.04,1.039h-1.04a1.039,1.039,0,0,1-1.04-1.039V21.131A1.04,1.04,0,0,1,304.413,20.092Zm-4.854,2.425h1.04a1.039,1.039,0,0,1,1.04,1.039v4.158a1.039,1.039,0,0,1-1.04,1.039h-1.04a1.039,1.039,0,0,1-1.04-1.039V23.556A1.04,1.04,0,0,1,299.56,22.517ZM294.707,24.6h1.04a1.04,1.04,0,0,1,1.04,1.039v2.079a1.039,1.039,0,0,1-1.04,1.039h-1.04a1.039,1.039,0,0,1-1.04-1.039V25.635A1.039,1.039,0,0,1,294.707,24.6Z" transform="translate(11.747 0.696)"/>
              <path id="Path_5" data-name="Path 5" d="M36.9,21.2a1.91,1.91,0,0,0-1.54.778,2.978,2.978,0,0,0-.629,1.936,2.474,2.474,0,0,0,.661,1.817,2.167,2.167,0,0,0,1.6.671,2.127,2.127,0,0,0,1.7-.767,2.723,2.723,0,0,0,.655-1.829,2.879,2.879,0,0,0-.322-1.318,2.25,2.25,0,0,0-.891-.961A2.434,2.434,0,0,0,36.9,21.2Zm2.832,4.7a4.4,4.4,0,0,1-1.024,1.013,4.272,4.272,0,0,1-1.014.5,3.433,3.433,0,0,1-1.084.167,3.031,3.031,0,0,1-2.441-1.09,3.929,3.929,0,0,1-.919-2.623,4.067,4.067,0,0,1,.478-1.973,3.509,3.509,0,0,1,1.326-1.378,3.6,3.6,0,0,1,1.856-.5,3.851,3.851,0,0,1,2.195.691,4.218,4.218,0,0,1,1.55,2.077,9.694,9.694,0,0,1,.526,3.421,7.982,7.982,0,0,1-1.191,4.617,3.889,3.889,0,0,1-3.4,1.722,3.392,3.392,0,0,1-2.276-.66,1.957,1.957,0,0,1-.762-1.507V30.3h1.417v.075a.881.881,0,0,0,.4.671,1.91,1.91,0,0,0,1.2.316,2.553,2.553,0,0,0,1.647-.564,3.781,3.781,0,0,0,1.117-1.844,8.573,8.573,0,0,0,.413-2.645Z" transform="translate(-4.67 -2.212)"/>
              <path id="Path_6" data-name="Path 6" d="M42.175,24.527H40.157v-2h2.018Zm0,6.5H40.157V29.021h2.018Z" transform="translate(-1.456 -1.048)"/>
              <path id="Path_7" data-name="Path 7" d="M48.5,27.294V22.135l-4.11,5.159Zm1.417,4.784H48.5v-3.6H42.828v-1.18L48.5,20.259h1.417v7.035h1.653v1.18H49.921Z" transform="translate(-0.213 -2.099)"/>
              <path id="Path_8" data-name="Path 8" d="M53.029,32.078V21.728l-2.393.955V21.363l2.393-1.1h1.417V32.078Z" transform="translate(3.42 -2.099)"/>
            </g>
          </g>
        </g>
      </g>
    </g>
    <rect id="Rectangle_45" data-name="Rectangle 45" width="7" height="130" rx="3.5" transform="translate(364 368)" fill="#50558b" opacity="0.83"/>
    <g id="Group_32-2" data-name="Group 32" transform="translate(-31 -21.5)" style="isolation: isolate">
      <path id="Path_32-2" data-name="Path 32" d="M2033.5,8661.908v38.724" transform="translate(-1827.691 -8427.686)" fill="none" stroke="#00005a" stroke-linecap="round" stroke-width="8.5"/>
      <path id="Path_33-2" data-name="Path 33" d="M2033.5,8661.908v31.2" transform="translate(-1799.494 -8420.162)" fill="none" stroke="#00005a" stroke-linecap="round" stroke-width="8.5"/>
      <path id="Path_34-2" data-name="Path 34" d="M2033.5,8661.908v35.785" transform="translate(-1785.396 -8424.38)" fill="none" stroke="#00005a" stroke-linecap="round" stroke-width="8.5"/>
      <line id="Line_26-2" data-name="Line 26" y1="49.814" transform="translate(219.907 223.5)" fill="none" stroke="#00005a" stroke-linecap="round" stroke-width="8.5"/>
      <line id="Line_27-2" data-name="Line 27" x2="63" transform="translate(195 276.5)" fill="none" stroke="#6865a2" stroke-linecap="round" stroke-width="5.5" style="mix-blend-mode: color-burn;isolation: isolate"/>
    </g>
    <text id="里程記錄" transform="translate(195 292)" fill="#0b112e" font-size="18" font-family="PingFangSC-Semibold, PingFang SC" font-weight="600" letter-spacing="0.03em"><tspan x="-36.81" y="0">里程記錄</tspan></text>
  </g>
</svg>
